<?xml version="1.0" standalone="no"?>
<!DOCTYPE svg PUBLIC "-//W3C//DTD SVG 20010904//EN"
 "http://www.w3.org/TR/2001/REC-SVG-20010904/DTD/svg10.dtd">
<svg version="1.0" xmlns="http://www.w3.org/2000/svg"
 width="800.000000pt" height="800.000000pt" viewBox="0 0 800.000000 800.000000"
 preserveAspectRatio="xMidYMid meet">
<metadata>
Created by potrace 1.14, written by Peter Selinger 2001-2017
</metadata>
<g transform="translate(0.000000,800.000000) scale(0.100000,-0.100000)"
fill="#000000" stroke="none">
<path d="M6692 4930 c-26 -11 -44 -52 -37 -83 3 -12 24 -42 45 -67 125 -142
224 -345 266 -546 21 -101 22 -116 24 -254 3 -304 -85 -561 -276 -801 -35 -44
-64 -87 -64 -94 0 -30 24 -64 52 -76 26 -11 36 -9 91 17 72 34 196 125 250
183 136 147 245 360 272 531 3 19 9 59 14 89 13 80 5 286 -14 375 -67 319
-274 600 -528 715 -50 23 -61 24 -95 11z"/>
<path d="M1210 4910 c-19 -10 -42 -23 -50 -27 -137 -72 -294 -242 -377 -408
-35 -68 -79 -187 -86 -231 -3 -16 -11 -54 -18 -84 -7 -32 -12 -117 -12 -200 0
-138 7 -184 47 -341 23 -88 116 -265 184 -349 113 -140 302 -275 379 -272 80
3 93 82 25 155 -132 144 -248 395 -277 602 -4 28 -9 59 -11 70 -5 26 -5 241 0
277 4 28 16 99 21 128 32 175 130 377 259 533 63 77 69 105 31 142 -29 30 -66
31 -115 5z"/>
<path d="M5628 4786 c-1 -2 -35 -7 -75 -10 -86 -8 -173 -35 -268 -83 -228
-116 -382 -330 -429 -597 -16 -92 -14 -246 4 -336 58 -283 303 -544 577 -614
224 -57 438 -27 617 88 31 20 59 36 62 36 2 0 50 -30 106 -66 134 -88 166 -97
224 -59 40 26 69 60 103 125 64 120 50 154 -109 261 l-77 53 28 78 c16 43 26
78 24 78 -3 0 -2 8 4 18 19 37 30 231 17 312 -24 143 -63 248 -126 344 -138
205 -359 342 -582 361 -40 4 -78 8 -85 10 -6 2 -13 2 -15 1z m106 -411 c147
-38 261 -154 301 -305 27 -102 11 -250 -37 -344 -32 -63 -120 -143 -195 -179
-61 -28 -78 -32 -158 -32 -80 0 -97 3 -155 31 -170 81 -264 242 -253 434 6
123 51 219 140 300 104 95 228 128 357 95z"/>
<path d="M4066 4764 c-94 -18 -158 -40 -250 -86 -134 -67 -232 -147 -302 -245
-62 -86 -99 -169 -131 -298 -3 -11 -7 -77 -10 -148 -7 -158 16 -272 82 -405
75 -154 185 -264 355 -355 211 -114 431 -133 656 -57 145 49 281 144 285 198
6 63 -28 141 -89 209 -76 83 -123 83 -248 -2 -80 -55 -240 -74 -339 -40 -59
20 -144 66 -181 98 -42 36 -85 105 -110 175 -29 85 -28 219 5 302 72 187 279
301 488 268 59 -9 99 -26 178 -77 89 -56 131 -52 200 17 88 88 120 175 87 242
-28 58 -193 152 -337 190 -98 26 -245 32 -339 14z"/>
<path d="M1575 4748 c-44 -15 -72 -45 -82 -86 -5 -20 -9 -345 -8 -722 0 -628
2 -688 18 -721 23 -50 77 -71 179 -70 99 1 148 20 173 67 18 34 19 60 20 445
0 225 1 409 3 409 1 0 29 -37 62 -82 33 -46 63 -87 67 -93 5 -5 39 -53 77
-105 149 -205 191 -237 291 -226 66 7 116 43 182 134 73 101 98 135 194 267
43 60 80 107 80 105 1 -3 2 -187 3 -410 1 -312 5 -412 15 -437 20 -49 77 -72
181 -74 131 -1 170 23 189 116 7 31 10 301 8 727 -2 669 -2 677 -23 705 -30
40 -68 56 -151 61 -117 7 -171 -15 -230 -93 -12 -17 -71 -93 -130 -171 -59
-77 -160 -209 -223 -292 l-115 -152 -23 27 c-12 16 -94 123 -182 238 -358 470
-325 439 -460 441 -47 1 -98 -3 -115 -8z"/>
</g>
</svg>
