<?xml version="1.0" standalone="no"?>
<!DOCTYPE svg PUBLIC "-//W3C//DTD SVG 20010904//EN"
 "http://www.w3.org/TR/2001/REC-SVG-20010904/DTD/svg10.dtd">
<svg version="1.0" xmlns="http://www.w3.org/2000/svg"
 width="1060.000000pt" height="1060.000000pt" viewBox="0 0 1060.000000 1060.000000"
 preserveAspectRatio="xMidYMid meet">
<metadata>
Created by potrace 1.14, written by Peter Selinger 2001-2017
</metadata>
<g transform="translate(0.000000,1060.000000) scale(0.100000,-0.100000)"
fill="#000000" stroke="none">
<path d="M5260 10420 c-41 -8 -102 -33 -126 -52 -50 -39 -123 -123 -139 -158
-10 -22 -22 -40 -27 -40 -4 0 -8 -5 -8 -10 0 -16 -91 -202 -109 -224 -9 -10
-15 -21 -15 -25 1 -3 -21 -51 -50 -106 -28 -55 -55 -111 -60 -125 -5 -14 -12
-27 -16 -30 -3 -3 -84 -160 -178 -350 -163 -326 -198 -394 -300 -583 -23 -42
-42 -83 -42 -91 0 -8 -5 -16 -11 -18 -5 -2 -11 -11 -12 -20 -2 -9 -9 -23 -16
-32 -7 -9 -10 -16 -5 -16 5 0 4 -4 -2 -8 -11 -7 -144 -275 -144 -290 0 -4 -5
-13 -11 -19 -23 -23 -60 -147 -63 -205 0 -16 -3 -28 -6 -28 -3 0 -4 -15 -3
-32 1 -18 2 -33 3 -33 1 0 3 -20 5 -44 2 -24 10 -60 16 -80 7 -20 12 -38 11
-41 -2 -14 65 -121 104 -167 105 -122 246 -182 424 -178 97 2 231 27 260 49 8
6 31 20 52 30 34 17 148 118 148 130 0 3 10 17 21 30 12 14 27 35 34 48 20 35
119 232 119 238 1 3 52 108 114 233 l113 229 94 -187 c52 -102 98 -192 104
-198 5 -7 10 -15 10 -20 0 -4 18 -40 38 -80 20 -39 51 -101 68 -137 36 -77 86
-153 131 -197 41 -41 152 -113 174 -113 9 0 20 -4 25 -9 6 -6 21 -11 35 -13
14 -2 30 -6 35 -9 17 -9 85 -14 190 -13 78 0 114 6 165 23 105 38 129 53 205
129 122 124 181 351 135 522 -16 62 -72 190 -82 190 -4 0 -8 6 -8 13 0 8 -19
49 -43 93 -23 43 -58 111 -77 149 -19 39 -38 72 -42 73 -4 2 -8 8 -8 14 0 12
-129 270 -139 278 -3 3 -7 12 -9 20 -2 8 -8 20 -13 26 -5 6 -42 76 -82 155
-272 533 -341 665 -348 674 -5 5 -9 17 -9 26 0 10 -3 19 -8 21 -4 2 -47 82
-96 178 -49 96 -95 182 -102 191 -8 8 -14 20 -14 25 0 5 -24 35 -54 66 -96
102 -231 150 -356 128z"/>
<path d="M2340 10412 c-28 -2 -157 -27 -250 -47 -44 -10 -177 -63 -262 -105
-176 -88 -321 -201 -448 -350 -12 -14 -29 -34 -38 -45 -82 -96 -191 -300 -241
-450 -61 -184 -76 -291 -74 -520 0 -133 5 -192 22 -270 30 -136 32 -146 49
-188 7 -16 12 -34 12 -42 0 -8 4 -16 9 -19 5 -3 12 -18 16 -33 8 -34 66 -150
108 -218 89 -144 244 -315 347 -385 12 -8 28 -20 34 -26 29 -27 142 -96 227
-137 153 -74 298 -118 479 -144 119 -17 450 -6 560 18 25 6 54 12 65 13 23 4
20 3 135 40 131 43 286 125 380 201 28 23 138 133 159 160 8 10 27 54 41 98
23 66 27 94 24 161 -3 86 -29 177 -64 225 -11 16 -20 32 -20 36 0 10 -65 72
-117 112 -87 68 -252 101 -363 74 -19 -5 -42 -10 -50 -12 -8 -2 -17 -6 -20 -9
-3 -3 -25 -15 -50 -28 -25 -12 -72 -45 -105 -74 -102 -87 -195 -120 -345 -122
-36 -1 -68 -5 -72 -11 -5 -6 -8 -6 -8 1 0 10 -19 14 -72 15 -10 0 -18 4 -18
10 0 5 -7 9 -16 9 -35 0 -137 66 -189 122 -30 33 -55 64 -55 70 0 6 -6 19 -14
27 -12 15 -54 117 -61 151 -2 8 -4 15 -5 15 -6 0 -12 74 -15 170 -6 235 69
419 221 536 67 52 169 78 289 73 136 -5 220 -35 338 -123 66 -48 148 -81 218
-86 30 -2 56 -5 59 -6 7 -2 10 -2 54 5 62 10 90 18 105 30 8 6 16 9 18 7 7 -6
63 21 63 30 0 5 6 9 14 9 8 0 39 25 69 55 140 140 177 356 90 527 -7 15 -14
31 -15 35 -7 25 -158 175 -158 158 0 -3 -10 3 -22 15 -12 11 -28 20 -35 20 -7
0 -13 5 -13 10 0 6 -6 10 -14 10 -8 0 -16 3 -18 8 -10 23 -240 117 -358 147
-8 2 -15 4 -15 5 0 1 -9 3 -20 5 -11 2 -36 7 -55 10 -19 4 -45 9 -57 11 -13 2
-35 7 -50 10 -33 6 -351 12 -403 6z"/>
<path d="M5630 6857 c-81 -27 -170 -111 -222 -212 -61 -117 -185 -361 -386
-755 -269 -529 -266 -525 -274 -528 -5 -2 -8 -9 -8 -16 0 -6 -21 -52 -46 -101
-25 -50 -100 -196 -166 -325 -66 -129 -125 -241 -131 -249 -7 -8 -11 -16 -9
-18 2 -2 -6 -28 -17 -58 -18 -48 -43 -191 -36 -205 2 -3 5 -29 9 -58 3 -28 13
-71 22 -95 8 -23 16 -48 18 -55 1 -7 8 -18 14 -24 7 -7 12 -16 12 -21 0 -15
60 -88 114 -139 47 -44 148 -102 198 -112 12 -3 34 -7 48 -11 25 -5 190 -6
241 -1 14 1 30 6 37 10 7 4 12 5 12 2 0 -7 132 42 140 52 3 4 18 14 33 22 41
21 111 92 156 158 22 31 114 209 206 395 144 292 169 336 179 320 7 -10 32
-58 57 -108 24 -49 47 -91 52 -93 4 -2 7 -8 7 -14 0 -6 54 -119 119 -252 127
-257 175 -327 261 -382 96 -61 132 -75 265 -101 86 -18 232 -5 319 28 145 54
270 195 307 345 5 22 12 48 15 59 17 59 5 246 -17 269 -5 6 -9 18 -9 28 0 21
-64 161 -109 236 -17 28 -28 52 -25 52 3 0 -3 12 -13 28 -17 24 -77 139 -182
347 -19 39 -37 72 -40 75 -3 3 -26 46 -51 95 -25 50 -48 92 -51 95 -3 3 -37
68 -75 145 -172 343 -238 470 -246 473 -4 2 -8 10 -8 17 0 8 -21 54 -48 102
-26 48 -67 126 -90 173 -139 273 -148 287 -235 353 -94 71 -229 93 -347 54z"/>
<path d="M1628 6853 c-190 -49 -325 -207 -337 -399 -6 -96 -4 -2140 3 -2186 3
-27 13 -67 22 -90 8 -24 18 -52 21 -63 4 -11 9 -22 12 -25 3 -3 22 -26 41 -52
56 -75 147 -127 270 -156 34 -8 291 -7 380 1 116 11 231 61 300 130 41 42 93
138 104 192 4 17 9 41 11 55 3 14 6 138 7 277 1 199 3 249 13 240 7 -7 41 -37
75 -67 34 -30 74 -66 90 -80 15 -14 59 -54 99 -89 39 -35 89 -80 110 -100 22
-20 67 -61 102 -91 34 -30 81 -73 104 -95 23 -22 67 -62 99 -90 32 -27 71 -61
86 -75 15 -14 47 -41 70 -59 23 -19 48 -41 55 -48 38 -38 213 -109 252 -102 4
1 10 0 13 -1 14 -5 60 -5 60 1 0 3 10 5 23 4 12 -2 49 6 82 17 33 11 66 20 73
20 6 1 12 4 12 7 0 3 13 12 30 19 69 31 165 159 184 247 3 17 9 41 12 55 3 14
7 66 9 115 2 50 5 91 6 93 6 8 4 29 -3 39 -5 6 -5 14 2 18 6 4 7 12 1 23 -5
10 -6 36 -1 60 4 23 4 45 -1 48 -4 2 -4 16 1 29 6 15 6 27 -1 30 -5 4 -6 12
-2 18 10 16 10 38 1 58 -4 9 -3 30 2 48 5 17 5 33 1 36 -8 4 -3 85 5 94 2 2
-1 12 -6 22 -7 12 -7 20 0 24 7 4 7 11 2 18 -5 7 -8 21 -6 32 5 28 5 75 1 105
-1 14 0 38 5 54 4 16 3 36 -1 45 -5 9 -6 35 -1 59 4 23 4 45 -1 48 -4 2 -4 16
1 29 6 15 6 27 -1 30 -5 4 -6 12 -2 18 10 15 10 38 2 57 -4 8 -4 34 1 58 4 23
4 45 -1 48 -4 2 -4 16 1 29 6 15 6 27 -1 30 -5 4 -6 12 -2 18 10 16 10 38 1
58 -4 9 -3 30 2 48 5 17 5 33 0 36 -7 4 -3 75 5 84 2 1 0 13 -4 25 -5 11 -5
30 -1 41 4 11 4 30 -1 43 -5 14 -5 22 2 22 6 0 7 6 3 12 -10 17 -11 77 -2 106
4 12 4 22 0 22 -4 0 -8 69 -8 154 -3 229 -29 303 -149 417 -16 16 -36 29 -42
29 -7 0 -13 4 -13 9 0 8 -66 36 -100 43 -8 2 -17 6 -20 9 -20 23 -350 33 -465
14 -58 -10 -124 -33 -172 -61 -49 -28 -113 -87 -113 -103 0 -6 -4 -11 -8 -11
-19 0 -68 -130 -79 -210 -4 -25 -7 -152 -7 -282 -1 -131 -3 -238 -6 -238 -6 1
-52 41 -173 153 -131 122 -147 136 -227 207 -40 36 -88 79 -106 95 -18 17 -51
46 -73 65 -23 19 -79 71 -125 115 -100 97 -155 145 -165 145 -5 0 -16 9 -26
20 -10 11 -24 20 -31 20 -7 0 -14 3 -16 8 -5 12 -101 60 -148 73 -63 17 -158
18 -222 2z"/>
<path d="M7257 3304 c-1 -1 -36 -4 -77 -8 -75 -6 -120 -12 -152 -22 -9 -3 -27
-7 -39 -9 -39 -8 -153 -47 -166 -58 -7 -5 -13 -7 -13 -4 0 3 -21 -6 -47 -20
-27 -14 -65 -34 -85 -45 -21 -11 -38 -24 -38 -29 0 -5 -6 -9 -14 -9 -22 0
-155 -129 -211 -205 -60 -83 -125 -212 -139 -275 -3 -14 -10 -43 -16 -65 -5
-22 -13 -76 -16 -120 -15 -204 15 -375 95 -533 56 -112 172 -246 266 -310 22
-15 45 -32 52 -38 19 -18 141 -86 203 -112 59 -26 312 -116 485 -172 144 -47
196 -88 158 -125 -8 -8 -17 -15 -21 -16 -4 0 -14 -2 -22 -4 -133 -29 -261 -22
-355 19 -47 21 -138 78 -155 97 -8 8 -70 35 -114 49 -55 18 -151 19 -219 3
-86 -20 -159 -59 -219 -118 -64 -64 -67 -68 -97 -128 -86 -177 -50 -404 86
-542 35 -36 88 -75 102 -75 5 0 11 -3 13 -8 3 -8 102 -58 181 -91 85 -36 273
-86 367 -97 130 -15 169 -18 290 -18 117 0 163 3 300 18 56 7 92 16 225 57 80
25 200 83 271 131 71 48 224 203 224 228 0 5 6 13 13 17 26 16 113 227 123
298 1 11 3 20 4 20 3 0 6 21 15 100 8 72 8 223 0 285 -8 61 -42 185 -60 221
-9 16 -13 29 -9 29 4 0 2 6 -4 13 -5 6 -20 30 -32 52 -12 22 -39 63 -60 90
-39 50 -143 155 -154 155 -3 0 -29 18 -58 40 -29 22 -58 40 -65 40 -6 0 -13 4
-15 8 -2 7 -127 70 -203 103 -49 21 -136 52 -351 125 -243 81 -282 101 -266
130 13 24 34 28 137 27 106 0 123 -4 201 -40 33 -15 64 -28 69 -29 6 -1 26 -5
45 -8 186 -36 406 71 480 232 12 26 26 56 31 67 5 11 13 40 17 65 34 193 -55
375 -231 474 -91 50 -265 104 -397 122 -87 11 -325 25 -333 18z"/>
<path d="M1777 3254 c-1 -2 -25 -4 -52 -5 -135 -7 -282 -88 -348 -191 -20 -32
-54 -116 -63 -155 -12 -56 -16 -317 -18 -1177 -2 -913 0 -984 40 -1103 66
-200 233 -332 444 -351 90 -9 1198 -8 1290 0 72 7 150 28 194 53 59 32 96 58
96 66 0 5 5 9 11 9 26 0 129 146 158 226 65 171 38 367 -68 504 -70 90 -163
160 -246 186 -23 7 -102 27 -125 31 -19 3 -294 9 -613 13 -4 0 -7 334 -7 743
0 408 -2 755 -5 770 -10 49 -36 121 -61 165 -26 45 -120 142 -137 142 -6 0
-18 6 -26 13 -26 22 -128 49 -200 54 -87 5 -261 10 -264 7z"/>
<path d="M4197 3254 c-1 -1 -20 -4 -43 -7 -48 -7 -122 -34 -145 -54 -8 -7 -20
-13 -26 -13 -14 0 -109 -99 -135 -140 -38 -63 -60 -142 -64 -226 -1 -44 -4
-85 -5 -90 -1 -5 0 -11 1 -14 6 -16 5 -62 -2 -66 -5 -3 -6 -10 -2 -16 6 -9 9
-120 4 -143 -1 -5 -1 -12 0 -15 6 -16 5 -62 -2 -66 -5 -3 -6 -10 -2 -16 6 -9
9 -120 4 -143 -1 -5 -1 -12 0 -15 6 -16 5 -62 -2 -66 -5 -3 -6 -10 -2 -16 6
-9 9 -120 4 -143 -1 -5 -1 -12 0 -15 6 -16 5 -62 -2 -66 -5 -3 -6 -10 -2 -16
6 -9 9 -120 4 -143 -1 -5 -2 -13 -1 -17 3 -10 3 -136 0 -145 -1 -5 0 -12 1
-18 1 -5 2 -37 2 -70 0 -33 -1 -64 -2 -70 -1 -5 -1 -12 0 -15 6 -16 5 -62 -2
-66 -5 -3 -6 -10 -2 -16 6 -9 9 -120 4 -143 -1 -5 -1 -12 0 -15 6 -16 5 -62
-2 -66 -5 -3 -6 -10 -2 -16 6 -9 9 -120 4 -143 -1 -5 -1 -12 0 -15 6 -16 5
-62 -2 -66 -5 -3 -6 -10 -2 -16 6 -9 9 -120 4 -143 -1 -5 -2 -12 -1 -15 2 -3
4 -25 6 -49 13 -145 116 -287 263 -360 23 -12 42 -19 42 -16 0 3 10 0 23 -7
17 -10 182 -13 762 -14 785 -1 799 0 899 46 51 25 166 125 166 146 0 8 4 14 8
14 16 0 64 125 66 173 0 9 3 17 6 17 14 0 -3 141 -24 200 -18 48 -73 141 -92
152 -6 4 -26 21 -45 39 -34 32 -85 60 -153 87 -34 13 -110 16 -466 18 -234 1
-430 3 -435 3 -9 1 -13 106 -6 142 0 4 171 7 379 7 207 0 393 3 412 6 45 8
133 37 140 46 3 3 21 16 40 28 46 27 109 95 138 149 55 102 67 201 39 343 -12
65 -130 230 -164 230 -7 0 -13 4 -13 9 0 14 -102 60 -158 72 -53 11 -522 16
-540 6 -6 -4 -13 -4 -15 0 -3 5 -59 8 -124 7 -65 -1 -123 2 -128 6 -8 7 -12
104 -6 140 1 3 180 5 399 5 361 1 402 2 452 19 68 23 143 71 192 121 34 35
117 175 104 175 -3 0 -1 12 5 28 11 26 14 158 5 197 -11 51 -49 134 -82 178
-30 42 -151 141 -172 142 -4 1 -32 9 -62 20 -52 18 -95 19 -748 19 -382 1
-694 0 -695 0z"/>
<path d="M9160 1176 c-91 -19 -178 -69 -234 -134 -6 -7 -18 -21 -26 -31 -125
-149 -108 -412 36 -555 135 -133 342 -164 513 -77 53 28 130 103 163 161 79
136 72 321 -17 455 -27 41 -102 113 -126 120 -10 4 -19 11 -19 16 0 5 -3 8 -7
7 -5 -1 -26 6 -47 15 -71 31 -157 39 -236 23z m187 -85 c46 -13 114 -55 150
-93 34 -36 81 -116 86 -145 1 -10 5 -22 8 -28 3 -5 5 -42 4 -82 -4 -118 -65
-225 -164 -288 -75 -47 -180 -65 -261 -45 -25 6 -54 13 -65 15 -11 3 -21 9
-23 15 -2 5 -9 10 -15 10 -16 0 -87 66 -115 107 -58 83 -75 215 -39 313 64
176 254 273 434 221z"/>
<path d="M9100 1003 c-25 -8 -49 -19 -55 -24 -13 -13 -14 -447 0 -466 17 -22
74 -27 95 -8 14 13 18 30 16 81 -1 36 1 69 4 73 3 5 23 9 46 8 l41 -1 37 -78
c20 -43 41 -80 45 -82 22 -14 89 -14 107 -1 16 13 17 16 4 25 -8 5 -11 10 -7
10 4 0 -10 35 -32 77 l-40 78 24 20 c34 28 54 81 51 140 -6 109 -67 157 -206
161 -56 2 -100 -3 -130 -13z m186 -100 c21 -19 24 -29 21 -63 -2 -23 -11 -48
-19 -56 -17 -17 -97 -28 -116 -16 -14 10 -22 128 -10 148 12 19 98 10 124 -13z"/>
</g>
</svg>
