<?xml version="1.0" encoding="UTF-8" standalone="no"?>
<!-- Generator: Adobe Illustrator 21.0.0, SVG Export Plug-In . SVG Version: 6.00 Build 0)  -->

<svg
   version="1.1"
   id="Capa_1"
   x="0px"
   y="0px"
   viewBox="0 0 222.85781 264.8137"
   xml:space="preserve"
   sodipodi:docname="canales-iso.svg"
   width="222.8578"
   height="264.81369"
   inkscape:version="1.3.2 (091e20e, 2023-11-25, custom)"
   xmlns:inkscape="http://www.inkscape.org/namespaces/inkscape"
   xmlns:sodipodi="http://sodipodi.sourceforge.net/DTD/sodipodi-0.dtd"
   xmlns="http://www.w3.org/2000/svg"
   xmlns:svg="http://www.w3.org/2000/svg"><defs
   id="defs1"><pattern
     id="EMFhbasepattern"
     patternUnits="userSpaceOnUse"
     width="6"
     height="6"
     x="0"
     y="0" /></defs><sodipodi:namedview
   id="namedview1"
   pagecolor="#ffffff"
   bordercolor="#000000"
   borderopacity="0.25"
   inkscape:showpageshadow="2"
   inkscape:pageopacity="0.0"
   inkscape:pagecheckerboard="0"
   inkscape:deskcolor="#d1d1d1"
   inkscape:zoom="1.5153193"
   inkscape:cx="143.5341"
   inkscape:cy="158.05249"
   inkscape:window-width="1920"
   inkscape:window-height="1017"
   inkscape:window-x="-8"
   inkscape:window-y="-8"
   inkscape:window-maximized="1"
   inkscape:current-layer="Capa_1" />
<style
   type="text/css"
   id="style1">
	.st0{fill:#00E5B5;}
</style>

<path
   id="path1-9"
   style="fill:#054be8;fill-opacity:1;fill-rule:nonzero;stroke:none;stroke-width:0.598673"
   d="M 37.263435,0 C 27.285553,0.1995558 17.706364,4.190721 10.123182,12.572144 0.74396672,23.1487 -2.4485683,35.721257 1.9416977,49.291176 6.9306347,65.255788 18.305846,74.634245 35.068686,76.430264 c 12.372577,1.3969 22.748824,-2.992985 31.329808,-11.773524 2.394688,-2.394691 3.192917,-5.388454 1.79602,-8.581376 -1.197346,-3.39248 -3.791608,-5.188505 -7.184081,-5.388062 -4.789388,-0.399115 -8.779769,1.19735 -12.770928,3.592042 -8.381419,4.988941 -18.758831,2.99414 -24.745561,-4.988168 -5.188499,-6.984516 -4.789381,-16.762867 1.197347,-23.348269 5.787173,-6.585397 15.565914,-8.182251 22.94954,-3.791987 3.99116,2.394694 8.18188,4.190325 13.170818,3.99077 1.396908,-0.199562 2.793422,-0.399123 3.99077,-1.197346 4.789382,-3.19293 5.388055,-9.178887 1.197347,-13.369602 C 58.416572,3.9915599 49.236896,0 37.263435,0 Z m 77.877845,0.4992817 c -1.8958,0.099779 -3.74211,0.9977975 -4.83967,2.6940309 -0.79823,0.9977917 -1.39729,2.1947496 -1.99596,3.392096 C 100.92201,21.352679 93.339576,36.119986 85.955936,50.88725 c -1.79601,3.39248 -3.59243,6.78497 -4.98933,10.17745 -2.59426,5.986729 1.19774,15.565903 10.37739,15.166786 5.58762,-0.199557 9.578784,-2.594255 11.973474,-7.782757 3.19294,-6.385841 6.58463,-12.972045 9.77756,-19.557447 0.79823,-1.596462 1.59646,-3.192538 2.3947,-5.188115 1.59645,2.793808 2.7938,5.388065 4.19071,7.782757 3.19292,6.385843 5.98713,12.771313 9.77872,18.957604 1.99559,3.592038 5.18891,5.388846 9.18005,5.787958 5.78718,0.399117 10.17746,-1.995973 11.97347,-6.785357 1.39691,-3.791594 0.59868,-7.384032 -1.19734,-10.976071 C 140.23569,40.709429 131.05562,22.749576 121.6764,4.7893884 121.27729,3.9911589 120.87778,3.1933126 120.27912,2.5946388 118.98199,1.0979614 117.03708,0.3995074 115.14128,0.4992817 Z m 1.11083,93.4573853 c -2.13454,-0.07853 -4.31701,0.833702 -5.55177,2.629714 -0.79824,1.197355 -1.39612,2.394305 -1.9948,3.392095 -7.38363,14.767274 -14.967234,29.534584 -22.350864,44.301844 -1.79603,3.39249 -3.59245,6.78498 -4.98935,10.17746 -2.59424,6.18627 1.19775,15.56512 10.3774,15.36556 5.58761,-0.19955 9.578784,-2.79382 11.973484,-7.78275 3.19291,-6.5854 6.38585,-13.17083 9.57877,-19.75623 0.79824,-1.59647 1.59686,-3.19254 2.59464,-5.18811 1.59646,2.7938 2.79342,5.38806 3.99077,7.78275 3.39248,6.38584 6.18668,12.97088 9.77871,18.9576 2.19515,3.59203 5.38769,5.38885 9.37885,5.78795 5.5876,0.59868 10.17744,-1.99596 11.97346,-6.78534 1.39691,-3.7916 0.59867,-7.38403 -1.19734,-10.97607 -9.37921,-17.76064 -18.55929,-35.72049 -27.73894,-53.680674 -0.39911,-0.79823 -0.997,-1.396517 -1.39613,-2.194755 -1.13498,-1.309598 -2.76671,-1.97 -4.42689,-2.031044 z M 8.5259377,94.182336 c -1.080126,0.04333 -2.206051,0.307917 -3.390928,0.80681 -3.592035,1.596455 -4.98933298,4.59022 -4.98933298,8.581374 0.199555,9.17966 0,18.55849 0,27.93772 v 29.13621 c 0,5.18851 3.19292998,8.58022 8.38142898,8.58022 2.3946943,0.19956 4.7897843,0.19994 7.3840283,0.19994 5.587624,-0.19956 8.780157,-3.59242 8.780157,-9.18005 v -16.96164 c 0,-0.99779 -0.598673,-2.39469 0.598675,-2.99336 1.396902,-0.59867 1.995186,0.79784 2.793421,1.59606 9.379204,8.38142 18.758443,16.76288 28.137658,25.1443 2.993361,2.59424 6.386631,2.99375 9.978665,1.39729 3.392486,-1.59645 4.589449,-4.59061 4.589449,-8.18265 V 102.7719 c 0,-4.988944 -3.19254,-8.381426 -8.181489,-8.381426 -2.394689,-0.199567 -4.789389,-0.198786 -7.184083,-0.198786 -5.787168,0.199567 -8.980102,3.391708 -8.980102,9.178892 v 17.9602 c 0,0.99779 0.398728,1.99558 -0.79862,2.39469 -0.79823,0.39912 -1.397298,-0.59827 -1.995966,-0.9974 -9.578771,-8.58097 -18.95762,-17.16198 -28.536384,-25.742964 -2.057941,-1.920741 -4.210304,-2.898165 -6.5865773,-2.80277 z m 5.5891753,92.654084 c -1.197342,0 -2.394694,0.0499 -3.592041,0.14967 -6.5853973,0.19956 -9.3792153,2.99338 -9.57877728,9.57878 v 26.34163 24.74441 c 0,1.19733 -7.78e-4,2.39469 0.19878398,3.59203 0.399105,6.38584 4.191505,10.37779 10.5773403,10.57734 11.374791,0.39912 22.749605,0.39912 34.124392,0 5.587624,0 10.377011,-5.5884 10.17745,-11.17602 -0.199555,-5.98672 -4.789395,-10.57656 -10.776125,-10.77612 -4.789382,-0.19956 -9.778727,-0.19879 -14.568109,-0.19879 -3.791591,0 -5.188117,-1.19773 -5.188117,-4.98932 v -37.51649 -2.39469 c -0.399106,-4.39027 -3.39248,-7.38364 -7.782756,-7.78276 -1.197341,-0.0997 -2.394694,-0.14967 -3.592041,-0.14967 z m 89.348517,0.0655 c -8.839774,-0.0281 -17.707644,0.0842 -26.687744,0.0842 -1.59647,0 -2.99376,0.19918 -4.390658,0.9974 -2.79381,1.79603 -4.190714,4.38988 -4.190714,7.58281 v 28.53754 29.53379 c 0.199556,4.98894 3.392477,8.18188 8.381422,8.38143 12.17303,0.19956 24.147304,0.20034 36.320324,-0.19878 7.38363,-0.19955 12.37219,-8.38182 9.37882,-15.16678 -2.19513,-4.78938 -6.18591,-6.78457 -11.17484,-6.98415 -4.78939,0 -9.77874,0.19958 -14.568124,0 -2.39469,0 -3.99156,-1.59645 -3.79198,-4.19071 0.19956,-2.39468 1.59646,-3.59203 4.19071,-3.59203 h 18.758824 c 5.1885,-0.19956 8.38143,-4.7898 7.18409,-9.77872 -0.79823,-3.39248 -3.59204,-5.7868 -7.18409,-5.7868 -5.98673,-0.19956 -11.77353,-3.9e-4 -17.760254,-0.19994 -0.79822,0 -1.59725,0.19955 -2.19592,0 -1.79602,-0.39912 -2.99336,-1.99558 -2.99336,-3.59205 0.19956,-1.79602 1.59723,-3.19253 3.39326,-3.39209 h 1.59606 14.168234 c 2.99336,0 5.78756,-0.99817 7.9827,-3.19332 3.19291,-3.39248 4.19071,-7.38324 2.39469,-11.77352 -1.79602,-4.39026 -5.18812,-7.18408 -9.97751,-7.18408 -2.94346,-0.0499 -5.88734,-0.0749 -8.83394,-0.0842 z m 49.54375,0.0842 c -1.79601,0 -3.7916,0.39874 -5.38807,0.9974 -6.9845,2.79381 -12.1738,10.37662 -12.37335,18.35893 0,5.38806 0.19955,10.77613 0,16.16419 -0.19957,5.78718 3.39326,10.37701 9.97866,10.17746 4.78939,-0.19957 9.77796,0 14.76689,0 2.19514,0 4.59023,3.8e-4 6.78537,0.19994 1.99557,0 3.19253,1.59685 3.39208,3.19331 0,1.79601 -1.19734,2.99298 -2.99336,3.3921 -0.59867,0.19956 -1.19736,0.19993 -1.79602,0.19993 -5.78717,0 -11.57475,-5.9e-4 -17.56148,0.19879 -7.5832,0 -12.77171,5.58801 -12.57214,13.37077 0.3991,5.18849 3.59282,8.58137 8.78131,8.58137 9.37922,0 18.75767,-0.19955 28.33644,0 10.57654,0.19956 17.76143,-10.57657 17.76143,-17.9602 0.19955,-6.18629 0.19955,-12.57295 0,-18.95877 0,-4.98895 -3.59283,-8.58022 -8.78132,-8.58022 -3.99117,-0.19956 -8.1815,-0.19994 -12.3722,-0.19994 -3.39249,0 -6.58502,0.19955 -9.97751,0 -2.19512,0 -3.59204,-1.59608 -3.59204,-3.39209 0,-1.99558 1.5957,-3.39326 3.79083,-3.39326 1.3969,-0.19956 2.59463,5.9e-4 3.79199,-0.19879 5.1885,0 10.17705,0.19956 15.36556,0 7.38362,-0.3991 12.17302,-5.98713 11.97347,-13.37077 -0.39912,-5.38805 -3.59205,-8.58137 -8.9801,-8.58137 -4.78939,-0.19955 -9.57801,-0.19878 -14.56694,-0.19878 z m 57.65623,54.07706 c -6.30333,0.12895 -11.36505,5.19085 -11.55837,11.37714 -0.19956,6.5854 4.98896,12.1738 11.3748,12.37336 6.78495,0 12.17264,-4.98934 12.3722,-11.57474 0.19955,-6.5854 -4.98936,-12.17341 -11.57475,-12.17341 -0.20579,-0.006 -0.41054,-0.006 -0.61388,-0.002 z m 0.21515,1.79836 c 5.38805,0 9.97751,4.59061 9.97751,9.97866 0.19955,5.38807 -4.18993,9.77796 -9.77756,9.97751 -5.58761,0 -9.97866,-4.39066 -9.97866,-9.77872 0,-5.58763 4.39065,-9.9779 9.77871,-10.17745 z m -0.31219,2.96531 c -1.3057,-0.0215 -2.63129,0.10331 -3.87852,0.228 -0.59868,0.19957 -0.9974,0.39912 -0.9974,1.19735 0,3.59204 -0.19956,7.18409 0,10.77613 0,1.79601 1.39652,1.79601 2.79342,1.79601 1.39691,0 0.79784,-1.19734 0.9974,-1.79601 0.19956,-0.99779 -0.79823,-2.79382 0.59868,-2.99337 1.3969,-0.39912 1.7968,1.3969 2.19591,2.39469 1.3969,2.59424 1.9952,2.79342 5.18811,2.19474 -0.79823,-1.59645 -1.59607,-2.99258 -2.19476,-4.38949 -0.59865,-0.99778 -0.59865,-1.59684 0,-2.59464 2.19516,-2.7938 0.9978,-5.98673 -2.39468,-6.58541 -0.74833,-0.14967 -1.52474,-0.21515 -2.30816,-0.228 z m 0.11225,3.02142 c 0.99778,0 1.79602,0.59947 1.79602,1.59725 0,0.99778 -0.59868,1.39613 -1.79602,1.39613 -0.99779,0.19954 -1.19735,-0.39835 -1.19735,-1.39613 0,-0.79823 0,-1.59725 1.19735,-1.59725 z" /></svg>
