<?xml version="1.0" encoding="UTF-8" standalone="no"?>
<!-- Generator: Adobe Illustrator 21.0.0, SVG Export Plug-In . SVG Version: 6.00 Build 0)  -->

<svg
   version="1.1"
   id="Capa_1"
   x="0px"
   y="0px"
   viewBox="0 0 222.85781 264.8137"
   xml:space="preserve"
   sodipodi:docname="canales-iso.svg"
   width="222.8578"
   height="264.81369"
   inkscape:version="1.3.2 (091e20e, 2023-11-25, custom)"
   xmlns:inkscape="http://www.inkscape.org/namespaces/inkscape"
   xmlns:sodipodi="http://sodipodi.sourceforge.net/DTD/sodipodi-0.dtd"
   xmlns="http://www.w3.org/2000/svg"
   xmlns:svg="http://www.w3.org/2000/svg"><defs
   id="defs1"><pattern
     id="EMFhbasepattern"
     patternUnits="userSpaceOnUse"
     width="6"
     height="6"
     x="0"
     y="0" /><pattern
     id="EMFhbasepattern-7"
     patternUnits="userSpaceOnUse"
     width="6"
     height="6"
     x="0"
     y="0" /></defs><sodipodi:namedview
   id="namedview1"
   pagecolor="#ffffff"
   bordercolor="#000000"
   borderopacity="0.25"
   inkscape:showpageshadow="2"
   inkscape:pageopacity="0.0"
   inkscape:pagecheckerboard="0"
   inkscape:deskcolor="#d1d1d1"
   inkscape:zoom="2.1429851"
   inkscape:cx="104.29377"
   inkscape:cy="108.49352"
   inkscape:window-width="1920"
   inkscape:window-height="1017"
   inkscape:window-x="-8"
   inkscape:window-y="-8"
   inkscape:window-maximized="1"
   inkscape:current-layer="Capa_1" />
<style
   type="text/css"
   id="style1">
	.st0{fill:#00E5B5;}
</style>

<path
   id="path1"
   style="fill:#282828;fill-opacity:1;fill-rule:nonzero;stroke:none;stroke-width:0.540219"
   d="m 111.97851,4.3495649 c -3.56399,-0.00218 -6.56351,2.1650991 -8.61184,6.1154421 -4.861966,9.723917 -9.904367,19.448224 -14.766329,29.352223 l -1.259806,2.341297 c -0.900366,1.800726 -1.800731,3.420685 -2.701092,5.04134 -1.980804,4.141667 -4.322451,8.464134 -6.303254,12.785871 -3.241306,6.842765 -0.719582,14.585553 5.763035,18.187008 1.980798,1.080436 4.141672,1.440232 5.942404,1.440232 1.260508,0 2.340243,7.02e-4 3.42068,-0.17937 3.241305,-0.360142 7.923922,-2.161588 11.165222,-8.464127 1.44058,-3.061238 3.06053,-6.301847 4.50111,-9.363087 1.08044,-2.160869 2.16124,-4.502171 3.42175,-6.663045 0.18007,0.540219 0.54056,1.080437 0.72064,1.620656 2.52101,5.042032 5.22141,10.08444 7.74243,15.306543 1.9808,3.961603 5.5826,6.481916 9.90436,7.202211 8.82356,1.620654 15.30654,-2.520676 16.9272,-10.623946 0.90035,-4.141673 -0.54092,-7.743488 -1.98151,-10.444574 -2.88116,-5.402181 -5.5819,-10.983751 -8.46307,-16.385931 l -2.16088,-4.142374 C 130.55768,28.472295 126.05619,19.468635 121.3743,10.465007 120.65401,9.3845696 118.85257,5.7834616 114.53083,4.7030245 113.65298,4.4666794 112.80097,4.350089 111.97851,4.3495649 Z M 41.421958,4.5226026 c -20.708359,0 -36.9152872,16.3870004 -36.915282,37.4555014 0,21.068502 16.56672,37.455504 37.815298,37.455504 10.804355,0 19.088077,-2.881877 25.570695,-9.004346 2.52101,-2.340948 3.780826,-5.761628 3.420679,-9.363087 -0.360147,-3.601448 -2.160523,-6.662693 -5.221758,-8.643497 L 65.911163,52.242256 C 61.409349,49.361093 55.647707,49.90096 51.686111,53.68249 c -2.160874,2.160868 -5.222466,3.241311 -9.364137,3.241311 -8.643492,0 -12.605454,-7.56272 -12.605454,-14.945697 0,-7.382978 3.781891,-14.945697 12.065235,-14.945697 3.601453,0 6.482969,0.899664 8.823919,2.880467 3.961596,3.241306 9.543512,3.421377 13.86526,0.540218 3.061236,-1.980802 4.862313,-5.582266 5.042389,-9.183714 0,-3.781525 -1.621006,-7.202216 -4.50217,-9.36309 C 58.708612,7.0443321 50.785734,4.5226026 41.421958,4.5226026 Z M 122.58663,92.945401 c -3.60343,-0.0023 -6.694,2.165101 -8.59602,6.115442 -5.04203,9.723927 -9.90365,19.448227 -14.94569,29.352217 l -1.260866,2.34131 c -0.900359,1.80073 -1.620302,3.42068 -2.520662,5.04133 -2.160874,4.14167 -4.321755,8.46414 -6.482623,12.78588 -3.241311,6.84275 -0.720641,14.58555 5.761976,18.187 2.160878,1.08044 4.142031,1.44023 6.122835,1.44023 1.08043,0 2.16087,7.1e-4 3.24131,-0.17937 3.42139,-0.36014 8.10292,-2.16158 11.16416,-8.46412 1.62066,-3.06124 3.0616,-6.12249 4.50217,-9.18371 1.26052,-2.34096 2.34131,-4.68155 3.42174,-6.84243 0.36014,0.54023 0.53987,1.08044 0.90002,1.62066 2.52101,5.04203 5.04204,10.08444 7.56305,15.30655 2.16088,3.9616 5.58192,6.48191 10.08373,7.20221 8.64348,1.62065 15.12612,-2.52068 16.74678,-10.62395 0.90036,-4.14167 -0.53952,-7.74349 -1.80003,-10.44458 -2.88117,-5.40218 -5.76234,-10.9841 -8.64349,-16.56635 l -2.16088,-3.96195 c -4.50182,-9.00363 -9.18443,-18.0073 -13.86631,-27.010927 -0.54022,-1.080431 -2.34025,-4.681546 -6.662,-5.761978 -0.87785,-0.236345 -1.73764,-0.352936 -2.5692,-0.353464 z M 67.386214,93.20285 c -0.56273,0.01688 -1.114201,0.05099 -1.65442,0.09602 h -0.901068 c -7.923196,0.180068 -12.244599,4.502175 -12.244599,12.60544 v 5.76198 4.68155 c -1.080438,-0.90037 -1.980453,-1.80074 -3.06089,-2.7011 -4.141672,-3.9616 -8.643502,-7.92286 -12.965246,-11.70437 -0.720294,-0.7203 -1.261215,-1.26017 -1.981504,-1.980453 -1.980804,-1.800728 -3.78153,-3.601809 -6.482623,-5.042394 -3.781525,-2.340943 -8.103283,-2.160518 -11.884808,0.180424 -3.421377,2.160872 -5.041335,5.582263 -5.041335,10.264153 v 18.00658 7.02284 5.40218 12.60545 2.7011 c -0.180076,2.34094 -0.180779,4.68225 0.179368,7.20326 0.72029,5.22211 4.322105,8.82322 9.364144,9.54351 1.620649,0.18007 3.061585,0.18042 4.50217,0.18042 1.440579,0 2.880817,-3.5e-4 4.141325,-0.18042 7.022831,-0.36014 11.164163,-4.68155 11.164163,-11.70438 v -10.9848 c 4.141671,3.78152 8.463781,7.56306 12.605455,11.34459 0.90036,0.72029 1.800731,1.62031 2.701092,2.52067 2.340945,1.9808 4.501469,3.9616 6.842414,5.94241 3.781524,3.06122 8.103283,3.78222 12.425026,1.9815 2.881164,-1.08044 6.122831,-3.60217 6.66305,-9.54457 0.180071,-1.08043 0.180422,-2.34059 0.180422,-3.60111 v -32.7729 -3.96195 c 0,-4.32175 -3.51e-4,-8.64385 -0.180422,-13.14567 C 81.577857,98.7007 78.156815,94.739099 72.754635,93.658662 70.86387,93.253498 69.074396,93.152207 67.386214,93.202852 Z M 161.8907,182.2545 c -15.8464,0 -27.01093,9.90437 -27.01093,23.95003 0,11.70473 6.6627,19.80768 19.44786,24.12942 l 8.10329,2.70109 c 4.32174,1.44058 4.32174,1.98115 4.32174,2.34129 0,0.7203 -0.18007,0.90037 -0.54022,1.08044 -0.54021,0.18008 -1.80108,0.72065 -4.50216,0.72065 -3.24132,0 -5.76234,-0.72029 -8.10329,-2.70109 -3.9616,-3.06123 -9.54422,-3.06123 -13.68589,0 -3.2413,2.34094 -4.86161,6.12213 -4.68154,10.08372 0.18008,3.9616 2.34061,7.56271 5.76198,9.54351 6.12247,3.60145 13.3261,5.40219 21.42938,5.40219 18.54748,0 29.53159,-9.36346 29.53159,-25.20985 0,-11.88479 -6.48299,-19.26815 -20.70873,-23.95004 l -9.00329,-3.06089 c -2.52101,-0.90036 -2.52067,-1.26051 -2.52067,-1.62065 0,-1.08043 3.06089,-1.08044 3.06089,-1.08044 2.16087,0 3.78117,0.36015 5.22176,1.08044 4.50181,2.34094 9.90471,1.26051 13.32609,-2.16087 2.52102,-2.70109 3.6011,-6.30291 3.06089,-9.90436 -0.72029,-3.60145 -3.06089,-6.48262 -6.30219,-8.10328 -4.50183,-2.16087 -10.0841,-3.24131 -16.20656,-3.24131 z m -138.295953,1.26086 c -7.74313,0.18007 -12.065235,4.68155 -12.06523,12.2446 0,3.78152 -3.56e-4,7.38334 -0.180428,10.9848 v 12.78482 5.76303 16.74677 c 0,1.62066 0.180072,3.4214 0.540219,5.40219 1.260509,6.12248 5.582964,10.08373 11.705439,10.62395 2.701087,0.18007 5.222109,0.18042 7.56306,0.18042 h 1.620655 6.482622 6.482623 c 3.241306,0 6.482277,-3.5e-4 9.543513,-0.18042 4.68189,-0.18008 8.823216,-2.88153 11.164161,-7.20327 2.340945,-4.32174 2.161226,-9.3638 -0.359791,-13.50546 -2.521016,-3.78153 -6.482628,-6.12213 -11.344589,-6.3022 -3.241312,-0.18007 -6.482628,-0.18043 -9.723935,-0.18043 H 41.421958 40.88174 c 0,-0.18007 -0.180427,-0.36014 -0.180422,-0.54021 v -28.99138 -1.80108 c 0,-1.80073 0.180071,-3.60075 0,-5.58155 -0.540219,-5.9424 -5.0424,-10.26416 -10.984798,-10.26416 -1.980804,-0.18007 -3.780828,-0.18042 -6.121773,-0.18042 z m 61.044696,0 c -6.122475,0 -11.16522,5.04204 -11.16522,11.34459 v 52.22077 c 0,6.12247 5.042745,11.16522 11.16522,11.16522 h 33.672927 c 6.12246,0 11.16522,-5.04275 11.16522,-11.16522 0,-6.12247 -5.04276,-11.16416 -11.16522,-11.16416 H 99.04492 c 0,0 -0.180424,-3.5e-4 -0.180424,-0.18042 v -3.24132 c 0,-0.18007 3.52e-4,-0.35979 0.180424,-0.35979 h 17.82721 c 6.12248,0 11.16417,-4.86162 11.16417,-11.16416 0,-6.12248 -5.04169,-11.16522 -11.16417,-11.16522 H 99.04492 98.864496 v -0.17938 -3.42174 c 0,-0.18007 0.180424,-0.18042 0.180424,-0.18042 h 17.82721 c 6.12248,0 11.16417,-5.04169 11.16417,-11.16416 0,-6.30255 -5.04169,-11.34459 -11.16417,-11.34459 z m 125.330697,51.68056 c -5.9424,0 -10.6243,4.86267 -10.80437,10.62499 0,6.12249 4.86197,10.80437 10.80437,10.80437 5.9424,0 10.62395,-4.6826 10.62395,-10.62499 0,-5.9424 -4.68155,-10.62431 -10.62395,-10.80437 z m 0,1.9815 c 4.86196,0 8.82287,3.9609 8.82287,8.82287 0,4.86196 -3.96091,8.82391 -8.82287,8.82391 -4.86196,0 -8.82391,-3.96195 -8.82391,-8.82391 0,-4.86197 3.96195,-8.82287 8.82391,-8.82287 z m -0.54021,2.16088 c -2.16087,0 -4.6826,0.54021 -4.6826,1.62065 v 4.50111 5.22282 c 0,1.62065 0.18077,1.80003 1.44128,1.80003 1.44059,0 1.62066,-0.17938 1.62066,-1.80003 v -2.70108 c 0.54022,0.18007 1.08044,0.17936 1.62066,0.17936 h 0.54021 l 1.62066,3.24132 c 0.18007,0.54021 0.36014,1.08043 2.16087,1.08043 0.90036,0 1.25981,-0.18007 1.25981,-0.54022 0,-0.18008 -0.17972,-0.54021 -0.35979,-1.08044 l -1.80108,-3.42068 c 1.2605,-0.72029 1.9815,-1.80073 1.9815,-3.78153 0,-2.52102 -1.44059,-4.32174 -5.40218,-4.32174 z m 0,2.34024 c 1.80073,0 2.16087,0.90107 2.16087,1.9815 0,1.26051 -0.36014,2.16087 -2.16087,2.16087 -0.54022,0 -1.08044,-5.4e-4 -1.62066,-0.36085 v -3.6011 c 0.54022,-0.18007 1.08044,-0.18042 1.62066,-0.18042 z" /></svg>
