<?xml version="1.0" encoding="UTF-8" standalone="no"?>
<svg version="1.1" id="Capa_1" x="0px" y="0px" viewBox="0 0 222.85781 264.8137" xml:space="preserve" xmlns="http://www.w3.org/2000/svg">
    <style>
        .st0 {
            fill: none;
            stroke: white;
            stroke-width: 5;
        }
        .fill-loader {
            stroke-dasharray: 1000;
            stroke-dashoffset: 1000;
            animation: fill 3s linear forwards;
        }
        @keyframes fill {
            to {
                stroke-dashoffset: 0;
            }
        }
    </style>
    <path class="st0 fill-loader" d="M111.978 4.35c-3.564-.002-6.564 2.165-8.612 6.115-4.862 9.724-9.904 19.448-14.766 29.352l-1.26 2.341c-.9 1.801-1.801 3.421-2.701 5.041-1.981 4.142-4.322 8.464-6.303 12.786-3.241 6.843-.72 14.586 5.763 18.187 1.981 1.08 4.142 1.44 5.763 2.341 3.241 1.801 5.042 5.042 6.122 8.643 1.44 4.682 1.26 9.724.36 14.586-1.26 7.203-3.421 14.586-6.843 21.069l-2.341 4.501c-6.843 13.205-13.686 26.231-20.528 39.256-4.862 9.544-9.544 19.088-14.226 28.632-2.701 5.042-8.283 9.004-14.765 9.004-3.781 0-7.562-1.261-10.803-3.781-8.283-5.402-11.166-15.948-7.024-24.231l1.801-3.241c3.421-6.302 6.482-12.963 9.903-19.623 8.103-15.404 15.765-30.987 24.048-46.391.36-.54.36-.9.9-1.44 2.161-3.241 4.501-6.122 6.843-9z"/>
</svg>