<?xml version="1.0" encoding="UTF-8" standalone="no"?>
<!-- Generator: Adobe Illustrator 21.0.0, SVG Export Plug-In . SVG Version: 6.00 Build 0)  -->

<svg
   version="1.1"
   id="Capa_1"
   x="0px"
   y="0px"
   viewBox="0 0 948.1 270.9"
   style="enable-background:new 0 0 948.1 270.9;"
   xml:space="preserve"
   sodipodi:docname="canales-white.svg"
   inkscape:version="1.3.2 (091e20e, 2023-11-25, custom)"
   xmlns:inkscape="http://www.inkscape.org/namespaces/inkscape"
   xmlns:sodipodi="http://sodipodi.sourceforge.net/DTD/sodipodi-0.dtd"
   xmlns="http://www.w3.org/2000/svg"
   xmlns:svg="http://www.w3.org/2000/svg"><defs
   id="defs8"><clipPath
     clipPathUnits="userSpaceOnUse"
     id="clipEmfPath1"><path
       d="  M 386,45.333333   C 386,65.333333 386,85.666667 386,105.66667   C 386,108 386,110 385.66667,112   C 385.33333,117.33333 383,122 377.66667,124   C 371.66667,126.66667 366.33333,125.66667 361.33333,121.66667   C 355.33333,116.33333 349.66667,111 344,106   C 333.66667,96.666667 323.33333,87.666667 313,78.333333   C 312.33333,77.666667 311.66667,76.666667 310.33333,77   C 309,77.666667 309.33333,79 309.33333,80   C 309.33333,90 309.33333,100 309.33333,110   C 309.33333,119.66667 304.33333,124.66667 295,125.33333   C 290,125.66667 285,125.66667 280.33333,125   C 273.66667,124.33333 269.33333,120 268.66667,113.33333   C 268,107.66667 268.33333,101.66667 268.33333,95.666667   C 268.33333,84.666667 268.33333,73.666667 268.33333,62.666667   C 268.33333,47.333333 268.33333,31.666667 268.33333,16.333333   C 268.33333,10.666667 269.66667,6 274.33333,3   C 279.33333,-0.33333333 284.66667,-0.33333333 289.66667,2.6666667   C 295.33333,5.6666667 299.66667,10.666667 304.33333,14.666667   C 316.66667,26 329,37 341.33333,48.333333   C 342.33333,49 343,50 344,49.333333   C 345,49 345,47.666667 345,46.666667   C 345,37 345,27 345,17   C 345,6 350,0.66666667 361.33333,0.33333333   C 365.66667,0.33333333 370,0 374.33333,1   C 381.33333,2.3333333 385.33333,6.6666667 385.66667,14   C 386,24.333333 386,34.666667 386,45.333333   z  M 702.33333,75.666667   C 703.66667,75.666667 704.66667,75.666667 705.66667,75.666667   C 715,75.666667 724,76.333333 733.33333,76   C 740.66667,75.666667 746,70 746,63   C 746.33333,55.333333 740.33333,49.666667 732,49.666667   C 724.33333,49.333333 716.33333,49.666667 708.33333,49.666667   C 705.66667,49.666667 703,49.666667 700.66667,49.333333   C 697.66667,49 696,46.666667 696,44   C 695.66667,41.333333 697.66667,39 700.33333,38.666667   C 701.33333,38.333333 702.66667,38.333333 704,38.333333   C 712.66667,38 721.33333,38.666667 730,38   C 743,36.666667 750.33333,21.333333 743.33333,10   C 739.33333,3.3333333 733,1 725.33333,1   C 710.66667,1 696.33333,1 681.66667,1   C 677,1 672.33333,1 667.66667,1.3333333   C 661.66667,1.6666667 657.33333,5.3333333 655.33333,11   C 654.66667,13.333333 654.66667,16.333333 654.66667,19   C 654.66667,43 654.66667,66.666667 654.66667,90.666667   C 654.66667,97.666667 654.66667,104.33333 654.66667,111   C 655,120.66667 660.33333,125.66667 670,125.66667   C 679.66667,125.66667 689.33333,125.66667 698.66667,125.66667   C 709,125.66667 719.33333,126.33333 729.66667,125.66667   C 736.66667,125 743,119.66667 745.33333,112.33333   C 747.33333,105.66667 745,97.666667 739.66667,93.333333   C 735.33333,89.666667 730,88.666667 724.33333,88.666667   C 717,88.666667 709.66667,88.666667 702.33333,88.666667   C 698,88.666667 695.66667,86 695.66667,82.333333   C 695.66667,78.333333 698.33333,76 702.33333,75.666667   z  M 806,38.333333   C 811.66667,38.333333 817.33333,38.333333 823,38.333333   C 829,38.333333 835,38.666667 841,37.666667   C 853.33333,35.333333 860.66667,22.333333 856.66667,10.666667   C 854.33333,4.3333333 849,1.3333333 841,1.3333333   C 833.33333,1.3333333 825.66667,1.3333333 818.33333,1.3333333   C 814.33333,1.3333333 810.33333,1.3333333 806.33333,1.3333333   C 801,1.3333333 796,1 791,1.6666667   C 778,4 766.66667,17.333333 766.33333,31.333333   C 766,42 766,52.666667 766.33333,63   C 766.33333,71 771.33333,76.333333 779.33333,77   C 783,77.333333 786.66667,77.333333 790.33333,77   C 799.33333,77 808.66667,77.333333 817.66667,77.666667   C 822,77.666667 824,80 823.33333,83.666667   C 823,87 821,88.333333 817.33333,88.666667   C 813,88.666667 808.33333,88.666667 804,88.666667   C 797,88.666667 790.33333,88 783.33333,89   C 774,90.666667 768,97 766.33333,106   C 764.33333,119 771.33333,126 783,125.66667   C 797,125.33333 811.33333,125.66667 825.66667,125.66667   C 828.33333,125.66667 831,125.33333 834,124.66667   C 845.33333,122.66667 855.66667,109.33333 857,98.333333   C 858.33333,86.666667 857.33333,75 857.33333,63.333333   C 857.33333,60 856,57 854,54.666667   C 850.66667,50.666667 846,49.666667 841,49.666667   C 835.33333,49.666667 829.33333,50 823.33333,49.666667   C 817.33333,49.666667 811.33333,49.666667 805.33333,49.333333   C 801,49 799,45.666667 800.33333,42   C 801.33333,39.333333 803.33333,38.333333 806,38.333333   z  M 62,37   C 69,36.666667 75.333333,38.333333 81,42   C 86.666667,45.666667 93,47.666667 99.666667,47.666667   C 106,48 110.66667,45 113.33333,39.333333   C 116,33.666667 115,28.666667 111,24.333333   C 103.66667,16.333333 95,10.666667 85,7.3333333   C 52.333333,-3.3333333 18,12.333333 5.3333333,44   C -3.3333333,65 -1,85.333333 11.666667,104   C 24.333333,122.33333 42.333333,131 61.666667,131.66667   C 74,131.66667 84,129.33333 92.666667,125   C 99.666667,121.33333 106.33333,117.33333 111.33333,111   C 114,107.66667 115.33333,104 114.33333,99.666667   C 112.66667,91.666667 106.66667,87.333333 98,88   C 91.333333,88.333333 85.666667,91 80,94.333333   C 68.333333,100.66667 57,100.66667 46.333333,92.666667   C 35.666667,85 31.666667,74.333333 34,61.333333   C 36.666667,48.333333 48.666667,38 62,37   z  M 498.66667,57.666667   C 490,41 481.33333,24.333333 473,7.6666667   C 471,4.3333333 468.66667,1.3333333 464.66667,0.33333333   C 459.33333,-1 454.66667,1.6666667 451.66667,7.6666667   C 441.66667,27.333333 431.66667,47 421.66667,66.333333   C 416.33333,77.333333 410.33333,88.333333 405.33333,99.333333   C 400.66667,109 404.33333,119.33333 413,124.33333   C 417.33333,126.66667 421.66667,126.33333 426.33333,125.66667   C 433.66667,124.66667 438.66667,120.33333 441.66667,113.66667   C 448.33333,100.66667 454.66667,87.666667 461,74.666667   C 461.33333,74 461.33333,73 462.66667,72.666667   C 463,73.333333 463.66667,74.333333 464,75   C 470.66667,88.333333 477.33333,102 484,115   C 487,120.66667 491.66667,124.33333 497.66667,125.33333   C 509.33333,127.33333 518.66667,123.33333 521.33333,110.66667   C 522.33333,105.33333 520.66667,100.66667 518.33333,96   C 511.66667,83.333333 505.33333,70.333333 498.66667,57.666667   z  M 616.66667,89   C 608.33333,88.666667 600.33333,88.666667 592,88.666667   C 586.66667,88.666667 584.33333,86.333333 584.33333,81   C 584.33333,63 584.33333,45.333333 584.33333,27.333333   C 584.33333,23 584.33333,18.666667 584,14   C 583.33333,6.3333333 578,1.3333333 570.33333,1   C 566.66667,1 562.66667,1 559,1   C 548.66667,1.3333333 543.33333,6.6666667 543.33333,17   C 543.33333,31.666667 543.33333,46.333333 543.33333,60.666667   C 543.33333,74.666667 543.33333,88.666667 543.33333,102.66667   C 543.33333,105.66667 543.33333,108.33333 544,111.33333   C 545.66667,119.66667 551.33333,125 559.66667,125.33333   C 565.33333,126 570.66667,125.66667 576.33333,125.66667   C 590,125.66667 603.66667,126.33333 617.66667,125.66667   C 631.33333,125 639.33333,109 632,97.666667   C 628.66667,92 623,89 616.66667,89   z  M 227.66667,62.333333   C 219,46 210.33333,29.333333 201.66667,12.666667   C 200,9 197.66667,6.3333333 193.66667,5.3333333   C 188,3.6666667 183.66667,6.3333333 180.33333,12.333333   C 170.33333,32 160.66667,51.666667 150.66667,71.333333   C 145,82 139.33333,93 134,104   C 129.66667,113.66667 133,124 142,129   C 146.33333,131.33333 150.66667,131 155.33333,130.33333   C 162.66667,129.66667 167.33333,125 170.66667,118.33333   C 177,105.33333 183.66667,92.333333 190,79.333333   C 190.33333,78.666667 190.33333,77.666667 191.66667,77.333333   C 192,78.333333 192.33333,79 193,80   C 199.66667,93.333333 206.33333,106.66667 213,120   C 216,125.33333 220.66667,129 226.66667,130   C 238.33333,132 247.66667,128 250.33333,115.33333   C 251.33333,110 249.66667,105.33333 247.33333,100.66667   C 240.66667,88 234,75.333333 227.66667,62.333333   z"
       id="path1-2" /></clipPath><pattern
     id="EMFhbasepattern"
     patternUnits="userSpaceOnUse"
     width="6"
     height="6"
     x="0"
     y="0" /><pattern
     id="EMFhbasepattern-0"
     patternUnits="userSpaceOnUse"
     width="6"
     height="6"
     x="0"
     y="0" /></defs><sodipodi:namedview
   id="namedview8"
   pagecolor="#ffffff"
   bordercolor="#000000"
   borderopacity="0.25"
   inkscape:showpageshadow="2"
   inkscape:pageopacity="0.0"
   inkscape:pagecheckerboard="0"
   inkscape:deskcolor="#d1d1d1"
   inkscape:zoom="0.33197976"
   inkscape:cx="1146.1542"
   inkscape:cy="510.5733"
   inkscape:window-width="1920"
   inkscape:window-height="1017"
   inkscape:window-x="-8"
   inkscape:window-y="-8"
   inkscape:window-maximized="1"
   inkscape:current-layer="Capa_1" />
<style
   type="text/css"
   id="style1">
	.st0{fill:#00E5B5;}
</style>

<path
   id="path1-5"
   style="fill:#ffffff;fill-opacity:1;fill-rule:nonzero;stroke:none;stroke-width:1.02809"
   d="M 480.23242 71.554688 C 475.59865 71.17986 471.58741 73.692379 468.88867 79.089844 C 458.60778 99.308928 448.32776 119.527 438.04688 139.74609 C 432.56372 151.05507 426.39435 162.0211 421.25391 173.33008 C 416.45616 183.26827 420.22661 194.23546 429.13672 199.0332 C 433.59176 201.43208 438.04601 201.08879 442.84375 200.74609 C 450.38308 199.718 455.52315 194.92139 458.60742 188.41016 C 465.46134 175.045 471.97315 161.67961 478.48438 148.31445 C 478.82706 147.28636 478.82647 146.59944 480.19727 145.91406 C 480.53996 146.94215 481.22567 147.62816 481.56836 148.65625 C 488.42229 162.36412 495.27693 176.07144 502.13086 189.7793 C 505.21513 195.60513 510.01311 199.03246 516.18164 200.06055 C 528.17601 202.11672 537.77015 198.00399 540.51172 185.32422 C 541.53981 179.49838 539.82661 174.70205 537.42773 169.9043 C 530.57381 156.88184 524.06291 143.8584 517.20898 130.83594 C 508.29887 113.70111 499.38967 96.566458 490.82227 79.431641 C 488.76609 75.661977 486.36626 72.920667 482.25391 71.892578 C 481.56851 71.721229 480.89439 71.608234 480.23242 71.554688 z M 382.70117 71.677734 C 380.47365 71.634898 378.24511 71.721226 376.01758 71.892578 C 364.36591 72.235271 359.22656 77.375668 359.22656 89.027344 L 359.22656 119.52734 C 359.22656 120.55543 359.22535 121.58413 358.19727 122.26953 C 357.16918 122.61222 356.48512 121.58292 355.45703 121.24023 C 342.77726 109.58855 330.09774 97.937885 317.41797 86.628906 C 312.62022 82.173854 308.16372 77.033483 302.33789 73.949219 C 297.19745 70.864952 291.71466 71.206749 286.57422 74.291016 C 281.77648 77.717978 280.40625 82.516858 280.40625 88 L 280.40625 135.97656 L 280.40625 169.9043 C 280.40625 175.73014 280.06265 181.89787 280.74805 188.06641 C 281.43343 194.57763 285.88827 199.03246 292.74219 200.06055 C 297.53994 200.74594 302.68182 200.40325 307.82227 200.06055 C 317.41777 199.71785 322.55664 194.23613 322.55664 184.64062 L 322.55664 153.79688 C 322.55664 152.42609 322.21515 151.0556 323.58594 150.71289 C 324.95673 150.02751 325.64274 151.0559 326.32812 152.08398 C 336.95171 161.33679 347.57369 170.93275 358.19727 180.18555 C 364.02311 185.66869 369.84904 191.15057 376.01758 196.29102 C 381.15802 200.40337 386.64201 201.43208 392.81055 199.0332 C 398.29369 196.63433 400.69246 192.17846 401.03516 186.69531 C 401.37786 184.29643 401.37695 182.24172 401.37695 180.18555 L 401.37695 117.81445 C 401.37695 107.19087 401.37786 96.565892 401.03516 85.599609 C 400.69246 78.402986 396.57944 73.94786 389.38281 72.234375 C 387.15529 71.891677 384.9287 71.720571 382.70117 71.677734 z M 750.24219 72.234375 C 735.16355 72.577068 720.42824 72.578125 705.34961 72.578125 C 700.55185 72.578125 695.75477 72.235432 690.95703 72.578125 C 684.7885 72.920829 680.33352 76.689787 678.27734 82.515625 C 677.59196 85.257196 677.5918 87.998663 677.5918 90.740234 L 677.5918 164.76367 L 677.5918 185.66797 C 677.93449 195.60616 683.41727 200.74609 693.35547 200.74609 L 722.82812 200.74609 C 733.4517 200.4034 744.07368 201.08969 754.69727 200.4043 C 761.89389 200.0616 768.40581 194.57837 770.80469 187.03906 C 772.86087 179.84244 770.46165 171.95985 764.97852 167.16211 C 760.52346 163.39245 755.04068 162.36523 749.21484 162.36523 C 741.67552 162.36523 734.13698 162.70792 726.59766 162.36523 C 722.1426 162.36523 719.74219 159.96587 719.74219 155.85352 C 719.74219 152.08386 722.4853 149.3418 726.59766 149.3418 L 730.02344 149.3418 C 739.61893 149.3418 748.8713 149.68449 758.4668 149.3418 C 766.00612 148.99911 771.49023 143.17319 771.49023 135.97656 C 771.83293 128.09454 765.66507 122.26953 757.09766 122.26953 L 732.76562 122.26953 C 730.02406 122.26953 727.28168 122.26849 724.88281 121.92578 C 721.79855 121.58309 720.08594 119.52673 720.08594 116.78516 C 719.74325 114.0436 721.79945 111.64436 724.54102 110.95898 C 725.5691 110.61627 726.93977 110.61719 728.31055 110.61719 C 737.22066 110.61719 746.13091 111.30348 755.04102 110.27539 C 768.40617 108.90461 775.94467 93.481754 768.74805 81.830078 C 764.63569 74.976155 758.1242 72.234375 750.24219 72.234375 z M 588.00781 72.433594 C 585.08419 72.385403 582.06552 72.578125 579.23828 72.578125 C 568.61469 72.578125 563.13086 78.061062 563.13086 89.027344 L 563.13086 133.91992 L 563.13086 177.09961 C 563.13086 179.84119 563.13102 182.9264 563.81641 185.66797 C 565.52989 194.23538 571.35446 199.7189 579.92188 200.4043 C 585.74771 200.74699 591.23081 200.74609 597.05664 200.74609 C 611.1072 200.74609 625.15948 201.08969 639.55273 200.4043 C 653.60327 199.7189 661.82642 183.61156 654.28711 171.61719 C 650.86015 165.79134 645.03466 163.04973 638.52344 162.70703 C 629.95602 162.36434 621.73146 162.36523 613.16406 162.36523 C 607.68092 162.36523 605.2832 160.30827 605.2832 154.48242 L 605.2832 99.650391 C 605.2832 94.852641 605.28214 90.398412 604.93945 85.943359 C 604.25405 78.061344 598.77069 72.578125 590.88867 72.578125 C 589.94626 72.492452 588.98235 72.449657 588.00781 72.433594 z M 845.85547 72.578125 C 841.74311 72.578125 837.62993 72.577218 833.51758 72.919922 C 828.03447 72.919922 822.89435 72.235583 817.75391 73.263672 C 804.38875 75.31985 792.73729 89.369372 792.39453 103.41992 C 792.05187 114.3862 792.05187 125.35404 792.39453 136.32031 C 792.39453 144.54502 797.53505 149.68374 805.75977 150.36914 C 809.52946 150.71183 813.29876 150.71289 817.06836 150.71289 C 826.32116 150.3702 835.91712 150.71198 845.16992 151.05469 C 849.62494 151.05469 851.68152 153.79675 850.99609 157.56641 C 850.65343 160.65067 848.59782 162.36523 844.82812 162.36523 C 840.37311 162.70792 835.57416 162.36434 831.11914 162.70703 C 823.92252 162.70703 817.06967 161.67804 809.87305 163.04883 C 800.27759 164.76231 794.10805 170.93184 792.39453 180.52734 C 790.33835 193.5498 797.53489 200.74699 809.5293 200.4043 C 823.92254 200.0616 838.65852 200.4043 853.39453 200.4043 C 856.13603 200.4043 858.87862 200.06145 861.96289 199.71875 C 873.61453 197.66257 884.23667 183.95351 885.60742 172.64453 C 886.97817 160.65015 885.95117 148.31469 885.95117 136.32031 C 885.95117 133.23605 884.57962 130.15171 882.52344 127.41016 C 879.09651 123.2978 874.29865 122.61133 869.1582 122.61133 L 850.99609 122.61133 C 844.82756 122.61133 838.65877 122.26849 832.49023 121.92578 C 828.03522 121.92578 825.97886 118.49907 827.34961 114.38672 C 828.3777 111.64514 830.43417 110.95898 833.17578 110.95898 C 839.00166 110.61627 844.82647 110.61719 850.65234 110.61719 C 856.82088 110.61719 862.98967 111.30242 869.1582 109.93164 C 881.83793 107.53275 889.37798 94.510897 885.26562 82.173828 C 882.86668 75.662594 877.38291 72.578125 869.1582 72.578125 C 861.27615 72.920829 853.39486 72.578125 845.85547 72.578125 z M 69.888672 75.664062 C 43.962115 75.94016 20.191378 91.2766 10.017578 116.44336 C 1.1074803 138.03323 3.5068326 159.27971 16.529297 178.4707 C 29.551751 196.9763 48.0572 206.22957 67.933594 206.57227 C 80.613355 206.91496 90.894583 204.5156 99.804688 200.06055 C 107.00132 196.29089 113.85565 191.8365 118.99609 185.66797 C 121.73766 182.241 123.10817 178.47068 122.08008 174.01562 C 120.3666 165.79091 114.19722 161.337 105.28711 161.67969 C 98.43318 162.36509 92.607091 165.10519 86.78125 168.18945 C 74.786875 174.70069 63.136208 174.70233 52.169922 166.82031 C 41.203646 158.5956 37.091364 147.62883 39.490234 134.26367 C 42.231809 120.89852 54.569494 110.61793 68.277344 109.58984 C 75.473968 108.90446 81.984706 110.96082 87.810547 114.73047 C 93.636388 118.15745 100.14802 120.212 107.00195 120.55469 C 113.51318 120.55469 118.31117 117.81307 121.05273 111.64453 C 123.7943 106.1614 122.7647 100.67967 118.65234 96.224609 C 111.11303 88.342594 102.20276 82.174111 91.921875 79.089844 C 84.575321 76.690969 77.148108 75.586755 69.888672 75.664062 z M 201.52148 76.353516 C 196.71905 75.983377 192.93219 78.533141 189.93359 84.230469 C 179.6527 104.44954 169.71448 124.32585 159.43359 144.54492 C 153.60775 155.85391 147.78197 166.81902 142.29883 178.4707 C 137.84378 188.0662 141.27064 199.03338 150.52344 204.17383 C 154.97849 206.23001 159.43468 206.23031 164.23242 205.54492 C 171.77174 204.51683 176.56913 199.71825 179.99609 193.20703 C 186.50733 179.84187 193.36181 166.47648 199.87305 153.11133 C 200.21574 152.42593 200.21515 151.39738 201.58594 151.05469 C 201.92864 151.74007 202.27163 152.76968 202.95703 153.45508 C 209.81095 167.16293 216.66364 180.87028 223.51758 194.57812 C 226.60185 200.40397 231.39983 203.83038 237.56836 205.20117 C 249.56272 207.25735 259.15883 203.1455 261.90039 190.12305 C 262.92848 184.6399 261.21529 179.49998 258.81641 175.04492 C 251.96249 161.67977 245.10888 148.65721 238.59766 135.63477 C 229.68755 118.49994 220.77729 101.36529 211.86719 84.230469 C 210.15371 80.803505 207.75493 77.717542 203.64258 76.689453 C 202.91435 76.518105 202.20755 76.406393 201.52148 76.353516 z M 920.53711 164.75977 C 909.71284 165.00163 901.0293 174.02685 901.0293 184.98242 C 901.0293 196.2914 909.93907 205.54492 921.24805 205.54492 C 932.55703 205.54492 941.81055 196.2914 941.81055 184.98242 C 941.81055 174.01613 932.55812 164.76367 921.5918 164.76367 C 921.23839 164.75296 920.88628 164.75196 920.53711 164.75977 z M 921.24805 168.18945 C 930.84351 168.18945 938.04102 175.72962 938.04102 184.98242 C 938.04102 194.23522 930.50085 201.77539 921.24805 201.77539 C 911.99525 201.77539 904.45703 194.23522 904.45703 184.98242 C 904.45703 175.72962 911.99525 168.18945 921.24805 168.18945 z M 919.53516 172.64453 C 911.99587 172.98722 911.99609 172.98892 911.99609 180.18555 L 911.99609 181.21289 C 911.99609 185.32525 911.99523 189.78022 912.33789 193.89258 C 912.33789 196.29146 914.05147 197.32031 916.79297 197.32031 C 919.19192 196.97761 918.84961 195.26337 918.84961 193.89258 C 918.84961 192.1791 918.50707 190.12258 919.53516 188.06641 C 921.93399 189.0945 922.62035 190.80906 923.64844 192.86523 C 925.01919 196.2922 926.73128 197.32031 930.1582 197.32031 C 931.87172 196.97761 932.21463 196.29161 931.5293 194.57812 C 930.50121 192.86465 929.81606 190.80813 928.44531 188.75195 C 927.75988 187.38116 927.75902 186.01141 928.78711 184.64062 C 932.55681 180.18557 930.50079 174.70087 925.01758 173.33008 C 923.30417 172.64469 921.24867 172.64453 919.53516 172.64453 z M 920.90625 178.12891 C 922.61977 178.12891 923.64844 178.81296 923.64844 180.86914 C 923.64844 182.23992 922.96146 183.26953 921.24805 183.26953 C 919.53453 183.26953 918.84961 182.58262 918.84961 180.86914 C 918.84961 179.49835 918.85007 178.12891 920.90625 178.12891 z " /></svg>
