<?xml version="1.0" encoding="UTF-8" standalone="no"?>
<!-- Generator: Adobe Illustrator 21.0.0, SVG Export Plug-In . SVG Version: 6.00 Build 0)  -->

<svg
   version="1.1"
   id="Capa_1"
   x="0px"
   y="0px"
   viewBox="0 0 948.1 270.9"
   style="enable-background:new 0 0 948.1 270.9;"
   xml:space="preserve"
   sodipodi:docname="canales.svg"
   inkscape:version="1.3.2 (091e20e, 2023-11-25, custom)"
   xmlns:inkscape="http://www.inkscape.org/namespaces/inkscape"
   xmlns:sodipodi="http://sodipodi.sourceforge.net/DTD/sodipodi-0.dtd"
   xmlns="http://www.w3.org/2000/svg"
   xmlns:svg="http://www.w3.org/2000/svg"><defs
   id="defs8"><clipPath
     clipPathUnits="userSpaceOnUse"
     id="clipEmfPath1"><path
       d="  M 386,45.333333   C 386,65.333333 386,85.666667 386,105.66667   C 386,108 386,110 385.66667,112   C 385.33333,117.33333 383,122 377.66667,124   C 371.66667,126.66667 366.33333,125.66667 361.33333,121.66667   C 355.33333,116.33333 349.66667,111 344,106   C 333.66667,96.666667 323.33333,87.666667 313,78.333333   C 312.33333,77.666667 311.66667,76.666667 310.33333,77   C 309,77.666667 309.33333,79 309.33333,80   C 309.33333,90 309.33333,100 309.33333,110   C 309.33333,119.66667 304.33333,124.66667 295,125.33333   C 290,125.66667 285,125.66667 280.33333,125   C 273.66667,124.33333 269.33333,120 268.66667,113.33333   C 268,107.66667 268.33333,101.66667 268.33333,95.666667   C 268.33333,84.666667 268.33333,73.666667 268.33333,62.666667   C 268.33333,47.333333 268.33333,31.666667 268.33333,16.333333   C 268.33333,10.666667 269.66667,6 274.33333,3   C 279.33333,-0.33333333 284.66667,-0.33333333 289.66667,2.6666667   C 295.33333,5.6666667 299.66667,10.666667 304.33333,14.666667   C 316.66667,26 329,37 341.33333,48.333333   C 342.33333,49 343,50 344,49.333333   C 345,49 345,47.666667 345,46.666667   C 345,37 345,27 345,17   C 345,6 350,0.66666667 361.33333,0.33333333   C 365.66667,0.33333333 370,0 374.33333,1   C 381.33333,2.3333333 385.33333,6.6666667 385.66667,14   C 386,24.333333 386,34.666667 386,45.333333   z  M 702.33333,75.666667   C 703.66667,75.666667 704.66667,75.666667 705.66667,75.666667   C 715,75.666667 724,76.333333 733.33333,76   C 740.66667,75.666667 746,70 746,63   C 746.33333,55.333333 740.33333,49.666667 732,49.666667   C 724.33333,49.333333 716.33333,49.666667 708.33333,49.666667   C 705.66667,49.666667 703,49.666667 700.66667,49.333333   C 697.66667,49 696,46.666667 696,44   C 695.66667,41.333333 697.66667,39 700.33333,38.666667   C 701.33333,38.333333 702.66667,38.333333 704,38.333333   C 712.66667,38 721.33333,38.666667 730,38   C 743,36.666667 750.33333,21.333333 743.33333,10   C 739.33333,3.3333333 733,1 725.33333,1   C 710.66667,1 696.33333,1 681.66667,1   C 677,1 672.33333,1 667.66667,1.3333333   C 661.66667,1.6666667 657.33333,5.3333333 655.33333,11   C 654.66667,13.333333 654.66667,16.333333 654.66667,19   C 654.66667,43 654.66667,66.666667 654.66667,90.666667   C 654.66667,97.666667 654.66667,104.33333 654.66667,111   C 655,120.66667 660.33333,125.66667 670,125.66667   C 679.66667,125.66667 689.33333,125.66667 698.66667,125.66667   C 709,125.66667 719.33333,126.33333 729.66667,125.66667   C 736.66667,125 743,119.66667 745.33333,112.33333   C 747.33333,105.66667 745,97.666667 739.66667,93.333333   C 735.33333,89.666667 730,88.666667 724.33333,88.666667   C 717,88.666667 709.66667,88.666667 702.33333,88.666667   C 698,88.666667 695.66667,86 695.66667,82.333333   C 695.66667,78.333333 698.33333,76 702.33333,75.666667   z  M 806,38.333333   C 811.66667,38.333333 817.33333,38.333333 823,38.333333   C 829,38.333333 835,38.666667 841,37.666667   C 853.33333,35.333333 860.66667,22.333333 856.66667,10.666667   C 854.33333,4.3333333 849,1.3333333 841,1.3333333   C 833.33333,1.3333333 825.66667,1.3333333 818.33333,1.3333333   C 814.33333,1.3333333 810.33333,1.3333333 806.33333,1.3333333   C 801,1.3333333 796,1 791,1.6666667   C 778,4 766.66667,17.333333 766.33333,31.333333   C 766,42 766,52.666667 766.33333,63   C 766.33333,71 771.33333,76.333333 779.33333,77   C 783,77.333333 786.66667,77.333333 790.33333,77   C 799.33333,77 808.66667,77.333333 817.66667,77.666667   C 822,77.666667 824,80 823.33333,83.666667   C 823,87 821,88.333333 817.33333,88.666667   C 813,88.666667 808.33333,88.666667 804,88.666667   C 797,88.666667 790.33333,88 783.33333,89   C 774,90.666667 768,97 766.33333,106   C 764.33333,119 771.33333,126 783,125.66667   C 797,125.33333 811.33333,125.66667 825.66667,125.66667   C 828.33333,125.66667 831,125.33333 834,124.66667   C 845.33333,122.66667 855.66667,109.33333 857,98.333333   C 858.33333,86.666667 857.33333,75 857.33333,63.333333   C 857.33333,60 856,57 854,54.666667   C 850.66667,50.666667 846,49.666667 841,49.666667   C 835.33333,49.666667 829.33333,50 823.33333,49.666667   C 817.33333,49.666667 811.33333,49.666667 805.33333,49.333333   C 801,49 799,45.666667 800.33333,42   C 801.33333,39.333333 803.33333,38.333333 806,38.333333   z  M 62,37   C 69,36.666667 75.333333,38.333333 81,42   C 86.666667,45.666667 93,47.666667 99.666667,47.666667   C 106,48 110.66667,45 113.33333,39.333333   C 116,33.666667 115,28.666667 111,24.333333   C 103.66667,16.333333 95,10.666667 85,7.3333333   C 52.333333,-3.3333333 18,12.333333 5.3333333,44   C -3.3333333,65 -1,85.333333 11.666667,104   C 24.333333,122.33333 42.333333,131 61.666667,131.66667   C 74,131.66667 84,129.33333 92.666667,125   C 99.666667,121.33333 106.33333,117.33333 111.33333,111   C 114,107.66667 115.33333,104 114.33333,99.666667   C 112.66667,91.666667 106.66667,87.333333 98,88   C 91.333333,88.333333 85.666667,91 80,94.333333   C 68.333333,100.66667 57,100.66667 46.333333,92.666667   C 35.666667,85 31.666667,74.333333 34,61.333333   C 36.666667,48.333333 48.666667,38 62,37   z  M 498.66667,57.666667   C 490,41 481.33333,24.333333 473,7.6666667   C 471,4.3333333 468.66667,1.3333333 464.66667,0.33333333   C 459.33333,-1 454.66667,1.6666667 451.66667,7.6666667   C 441.66667,27.333333 431.66667,47 421.66667,66.333333   C 416.33333,77.333333 410.33333,88.333333 405.33333,99.333333   C 400.66667,109 404.33333,119.33333 413,124.33333   C 417.33333,126.66667 421.66667,126.33333 426.33333,125.66667   C 433.66667,124.66667 438.66667,120.33333 441.66667,113.66667   C 448.33333,100.66667 454.66667,87.666667 461,74.666667   C 461.33333,74 461.33333,73 462.66667,72.666667   C 463,73.333333 463.66667,74.333333 464,75   C 470.66667,88.333333 477.33333,102 484,115   C 487,120.66667 491.66667,124.33333 497.66667,125.33333   C 509.33333,127.33333 518.66667,123.33333 521.33333,110.66667   C 522.33333,105.33333 520.66667,100.66667 518.33333,96   C 511.66667,83.333333 505.33333,70.333333 498.66667,57.666667   z  M 616.66667,89   C 608.33333,88.666667 600.33333,88.666667 592,88.666667   C 586.66667,88.666667 584.33333,86.333333 584.33333,81   C 584.33333,63 584.33333,45.333333 584.33333,27.333333   C 584.33333,23 584.33333,18.666667 584,14   C 583.33333,6.3333333 578,1.3333333 570.33333,1   C 566.66667,1 562.66667,1 559,1   C 548.66667,1.3333333 543.33333,6.6666667 543.33333,17   C 543.33333,31.666667 543.33333,46.333333 543.33333,60.666667   C 543.33333,74.666667 543.33333,88.666667 543.33333,102.66667   C 543.33333,105.66667 543.33333,108.33333 544,111.33333   C 545.66667,119.66667 551.33333,125 559.66667,125.33333   C 565.33333,126 570.66667,125.66667 576.33333,125.66667   C 590,125.66667 603.66667,126.33333 617.66667,125.66667   C 631.33333,125 639.33333,109 632,97.666667   C 628.66667,92 623,89 616.66667,89   z  M 227.66667,62.333333   C 219,46 210.33333,29.333333 201.66667,12.666667   C 200,9 197.66667,6.3333333 193.66667,5.3333333   C 188,3.6666667 183.66667,6.3333333 180.33333,12.333333   C 170.33333,32 160.66667,51.666667 150.66667,71.333333   C 145,82 139.33333,93 134,104   C 129.66667,113.66667 133,124 142,129   C 146.33333,131.33333 150.66667,131 155.33333,130.33333   C 162.66667,129.66667 167.33333,125 170.66667,118.33333   C 177,105.33333 183.66667,92.333333 190,79.333333   C 190.33333,78.666667 190.33333,77.666667 191.66667,77.333333   C 192,78.333333 192.33333,79 193,80   C 199.66667,93.333333 206.33333,106.66667 213,120   C 216,125.33333 220.66667,129 226.66667,130   C 238.33333,132 247.66667,128 250.33333,115.33333   C 251.33333,110 249.66667,105.33333 247.33333,100.66667   C 240.66667,88 234,75.333333 227.66667,62.333333   z"
       id="path1-2" /></clipPath><pattern
     id="EMFhbasepattern"
     patternUnits="userSpaceOnUse"
     width="6"
     height="6"
     x="0"
     y="0" /><pattern
     id="EMFhbasepattern-0"
     patternUnits="userSpaceOnUse"
     width="6"
     height="6"
     x="0"
     y="0" /><pattern
     id="EMFhbasepattern-6"
     patternUnits="userSpaceOnUse"
     width="6"
     height="6"
     x="0"
     y="0" /></defs><sodipodi:namedview
   id="namedview8"
   pagecolor="#ffffff"
   bordercolor="#000000"
   borderopacity="0.25"
   inkscape:showpageshadow="2"
   inkscape:pageopacity="0.0"
   inkscape:pagecheckerboard="0"
   inkscape:deskcolor="#d1d1d1"
   inkscape:zoom="0.93898056"
   inkscape:cx="490.42549"
   inkscape:cy="208.20452"
   inkscape:window-width="1920"
   inkscape:window-height="1017"
   inkscape:window-x="-8"
   inkscape:window-y="-8"
   inkscape:window-maximized="1"
   inkscape:current-layer="Capa_1" />
<style
   type="text/css"
   id="style1">
	.st0{fill:#00E5B5;}
</style>

<path
   id="path1"
   style="fill:#054be8;fill-opacity:1;fill-rule:nonzero;stroke:none;stroke-width:0.989875"
   d="m 836.97575,70.067173 c -29.03632,0 -49.49376,17.81649 -49.49376,43.883177 0,21.11732 12.20848,35.96612 35.63551,43.88511 l 14.84813,4.94938 c 7.91899,2.63966 7.919,3.95885 7.919,4.61876 0,1.31984 -0.65992,1.32113 -0.98988,1.65109 -0.98987,0.65992 -3.2983,1.64915 -8.24768,1.64915 -5.93924,0 -10.55866,-1.6498 -14.84812,-4.94938 -7.25907,-5.60928 -17.81841,-5.60993 -25.07748,-0.33061 -5.93924,4.61941 -8.90823,11.54855 -8.57828,18.80763 0.32997,7.25908 4.28883,13.85956 10.55803,17.48909 11.21857,6.59917 24.41629,9.89875 39.26441,9.89875 33.98567,0 54.11445,-17.15915 54.11445,-46.19547 0,-21.77722 -11.87917,-35.3049 -37.94585,-44.21377 l -16.49728,-5.60865 c -4.6194,-1.31983 -4.6207,-1.98104 -4.6207,-2.64096 0,-2.30971 5.61058,-2.30842 5.61058,-2.30842 3.9595,0 6.92848,0.65992 9.56815,1.97975 8.24894,4.28946 18.14706,2.63966 24.41628,-3.9595 4.6194,-4.61941 6.5998,-11.548545 5.27997,-17.817749 -0.98987,-6.59916 -5.27998,-12.208462 -11.21922,-14.848127 -8.24897,-3.959497 -18.4777,-5.939251 -29.69626,-5.939251 z m -632.28663,1.784483 c -6.60279,0.09111 -12.26582,3.84544 -15.751,11.083894 -9.23882,17.81773 -18.14706,35.96419 -27.3859,53.78192 l -2.31035,4.29011 c -1.6498,3.29958 -2.96898,6.26986 -4.61878,9.23948 -3.95949,7.91899 -7.919,15.50741 -11.8785,23.4264 -5.60928,12.53842 -1.32047,26.72599 10.55803,33.32515 3.9595,2.30971 7.5897,2.64096 11.21922,2.64096 1.97975,0 3.95951,-6.5e-4 5.93925,-0.3306 6.26922,-0.65992 14.8475,-3.95887 20.45678,-15.50741 2.96963,-5.60927 5.60866,-11.21923 8.57828,-17.15847 1.97974,-3.9595 3.9595,-8.24961 5.93925,-12.20911 0.6599,0.98987 0.99117,1.97976 1.65107,2.96962 4.61942,9.23884 9.23756,18.8083 14.18693,28.04712 3.62953,7.25907 9.89941,11.87786 18.14836,13.52764 15.83798,2.63966 27.7165,-4.94939 30.68613,-19.7975 1.64979,-7.58904 -0.99053,-14.18822 -3.30023,-18.80763 -5.27934,-10.2287 -10.55868,-20.12683 -15.838,-30.35552 l -3.6289,-7.5884 C 238.76185,115.9314 230.18291,99.433454 221.604,82.93555 c -0.98987,-1.979748 -4.29011,-8.580208 -12.2091,-10.559956 -1.60854,-0.371204 -3.18205,-0.544963 -4.70578,-0.523938 z m 280.46334,0 c -6.6122,0.09111 -12.32639,3.84544 -16.07967,11.083894 -8.90886,17.81773 -18.14836,35.96419 -27.05723,53.78192 l -2.30842,4.29011 c -1.64978,3.29958 -3.30088,6.26986 -4.6207,9.23948 -3.9595,7.91899 -7.91901,15.50741 -11.8785,23.4264 -5.93925,12.53842 -1.31854,26.72599 10.55995,33.32515 3.62954,2.30971 7.58775,2.64096 11.2173,2.64096 1.97974,0 3.9595,-6.5e-4 5.93925,-0.3306 6.2692,-0.65992 14.84943,-3.95887 20.4587,-15.50741 2.63967,-5.60927 5.60801,-11.21858 8.24768,-16.82787 1.97974,-4.28945 4.2901,-8.25026 6.26985,-12.53971 0.65992,0.98987 0.98923,1.97976 1.64915,2.96962 4.6194,9.23884 9.23883,18.8083 13.85825,28.04712 3.95949,7.25907 10.23001,11.87786 18.47895,13.52764 15.838,2.63966 27.71652,-4.94939 30.68613,-19.7975 1.6498,-7.58904 -0.99117,-14.18822 -3.63082,-18.80763 -5.27934,-10.2287 -10.55804,-20.45742 -15.5074,-30.68613 l -3.9595,-7.25779 c -8.24895,-16.49791 -16.82724,-32.995856 -25.40616,-49.49376 -0.98986,-1.979748 -4.29011,-8.580208 -12.2091,-10.559956 -1.60855,-0.371204 -3.18181,-0.544963 -4.70771,-0.523938 z M 75.433077,72.046923 c -38.275134,0 -67.9727156,30.354927 -67.9727156,68.630047 0,38.60511 30.6868136,68.632 69.6218636,68.632 19.467525,0 34.975605,-5.2787 46.524135,-16.49728 4.61941,-4.28945 7.25843,-10.55932 6.59852,-17.15848 -0.65992,-6.59916 -4.28882,-12.20846 -9.56814,-15.838 h -0.33061 c -8.24896,-5.60929 -19.13631,-4.28881 -26.065425,2.31035 -4.289454,3.9595 -9.900049,5.93925 -17.489083,5.93925 -15.837987,0 -23.095798,-13.85955 -23.095798,-27.38784 0,-13.52827 6.927851,-27.05529 22.105923,-27.05529 6.929119,0 12.209108,1.64979 16.168605,4.94937 7.589031,5.93925 17.817118,6.26921 25.406148,0.98988 5.60929,-3.62954 9.23949,-9.89875 9.23949,-16.82788 0.32995,-6.929116 -2.64033,-13.19898 -8.24961,-17.158477 C 106.77784,76.665706 92.260938,72.046923 75.433077,72.046923 Z M 384.0054,72.201591 c -1.03113,0.03093 -2.04162,0.09151 -3.0315,0.174003 h -1.64915 c -14.51814,0.329957 -22.43845,8.249618 -22.43845,23.097731 v 10.558015 8.58021 c -1.97975,-1.64978 -3.6289,-3.29958 -5.60865,-4.94937 -7.91899,-6.92912 -15.83801,-14.519465 -23.75701,-21.448584 -1.31983,-0.989874 -2.30906,-2.309066 -3.6289,-3.628898 -3.62952,-3.299581 -7.25908,-6.599816 -11.8785,-9.239479 -7.25907,-4.289456 -14.84813,-3.958852 -21.77725,0.330602 -6.2692,3.959497 -9.23948,10.228719 -9.23948,18.807629 v 32.99648 13.19704 9.57009 23.09579 4.94938 c -0.32995,4.28946 -0.3293,8.91018 0.3306,13.52958 1.31984,9.23884 7.91772,15.83672 17.15656,17.15655 2.96961,0.32996 5.60993,0.33061 8.2496,0.33061 2.63967,0 5.27998,-6.5e-4 7.25972,-0.33061 12.86837,-0.65992 20.78738,-8.57828 20.78738,-21.44664 V 167.4036 c 7.58905,6.92913 15.50676,13.85827 23.09581,20.78738 1.64977,1.64979 3.29958,2.97092 4.94937,4.62071 4.28945,3.62955 8.25025,7.2591 12.5397,10.88863 6.59917,5.93925 14.84814,6.92912 22.76713,3.9595 4.94938,-2.3097 11.2173,-6.92914 12.20718,-17.81776 0.32995,-1.97975 0.3306,-4.29075 0.3306,-6.60045 v -60.05178 -7.25973 c 0,-7.919 -6.5e-4,-15.83801 -0.3306,-23.757003 -0.32997,-9.898742 -6.59854,-17.15655 -16.49728,-19.136299 -3.46456,-0.742405 -6.74352,-0.928007 -9.83688,-0.835207 z m 199.56231,0.174003 c -14.18821,0.329957 -22.10593,8.250263 -22.10593,22.438458 0,6.599158 -6.4e-4,13.527008 -0.3306,20.126168 v 23.09774 10.88862 30.68613 c 0,2.63967 0.32996,6.26921 0.98988,9.89876 2.3097,11.21857 10.22807,18.47831 21.44665,19.13822 4.6194,0.32997 9.56879,0.32867 13.85825,0.32867 h 2.96963 11.8785 c 3.95949,0.32996 7.919,0.33061 11.8785,0.33061 5.93924,0 11.54984,-0.33061 17.48908,-0.33061 8.57892,-0.65992 16.16732,-5.608 20.45678,-13.19704 3.9595,-8.24895 3.96014,-17.15784 -0.65928,-24.74688 -4.6194,-7.25908 -11.8785,-11.54854 -20.78738,-11.87851 h -17.81775 -6.60045 c -0.65992,0 -0.98987,-6.4e-4 -0.98987,-0.33059 -0.32997,0 -0.32868,-0.32932 -0.32868,-0.65928 v -53.12459 -3.62889 c 0,-3.299585 0.32996,-6.599175 0,-9.898756 -0.98987,-10.888616 -9.23949,-18.808273 -20.1281,-19.13823 z m 111.8559,0 c -11.21859,0 -20.45678,9.240135 -20.45678,20.458708 v 96.017888 c 0,11.21858 9.23819,20.45678 20.45678,20.45678 h 61.70285 c 11.21858,0 20.45678,-9.2382 20.45678,-20.45678 0,-11.54853 -9.2382,-20.78738 -20.45678,-20.78738 h -35.3049 -0.3306 c -0.32996,0 -0.3306,-0.3306 -0.3306,-0.3306 l 0.3306,-5.93925 c 0,0 6.4e-4,-0.33061 0.3306,-0.33061 h 32.66588 c 11.21858,0 20.45678,-9.2382 20.45678,-20.45677 0,-11.21857 -9.2382,-20.45678 -20.45678,-20.45678 h -32.66588 l -0.3306,-0.3306 v -0.3306 -5.93925 c 0,-0.32996 6.4e-4,-0.65927 0.3306,-0.65927 h 32.66588 c 11.21858,0 20.45678,-9.2382 20.45678,-20.456778 0,-11.218573 -9.2382,-20.458708 -20.45678,-20.458708 z m 229.65103,94.699346 c -10.88861,0 -19.46755,8.57828 -19.7975,19.4669 0,10.88862 8.90889,19.7975 19.7975,19.7975 10.88861,0 19.46883,-8.90824 19.46883,-19.4669 0,-10.88862 -8.58022,-19.7975 -19.46883,-19.7975 z m 0,3.6289 c 8.90887,0 16.1686,7.25973 16.1686,16.1686 0,8.90887 -7.25973,15.838 -16.1686,15.838 -8.90887,0 -16.16668,-7.25973 -16.16668,-16.1686 0,-8.57891 7.25781,-15.838 16.16668,-15.838 z m -0.98987,3.9595 c -3.9595,0 -8.57828,0.98987 -8.57828,2.96962 v 8.2496 9.56816 c 0,2.96962 0.32931,2.96962 2.63903,2.96962 2.63965,0 2.96962,0 2.96962,-2.96962 v -4.94938 h 2.96963 0.98987 l 2.96963,6.26985 c 0.32995,0.98988 0.65991,1.64915 3.9595,1.64915 1.64977,0 2.31035,6.5e-4 2.31035,-0.65927 0,-0.65991 -0.32931,-1.31983 -0.65928,-1.97975 l -3.30022,-6.26985 c 2.3097,-1.31983 3.6289,-3.62955 3.6289,-6.92913 0,-4.61942 -2.63968,-7.919 -9.89875,-7.919 z m 0,3.9595 c 3.29957,0 3.9595,1.97975 3.9595,3.9595 0,1.97975 -0.65993,3.9595 -3.9595,3.9595 -0.98988,0 -2.30973,-0.32931 -2.96963,-0.65928 v -6.60045 c 0.6599,-0.32997 1.97975,-0.65927 2.96963,-0.65927 z" /></svg>
