<?xml version="1.0" encoding="UTF-8"?>
<svg id="Capa_1" xmlns="http://www.w3.org/2000/svg" version="1.1" viewBox="0 0 212.51 212.51">
  <!-- Generator: Adobe Illustrator 30.1.0, SVG Export Plug-In . SVG Version: 2.1.1 Build 136)  -->
  <defs>
    <style>
      .st0 {
        fill: #fff;
      }
    </style>
  </defs>
  <path class="st0" d="M109.73.06C48.3-1.91-1.91,48.3.06,109.73c1.78,55.63,47.09,100.94,102.72,102.72,61.43,1.96,111.64-48.24,109.68-109.68C210.68,47.14,165.36,1.83,109.73.06ZM68.59,35.75h18.83v27.93h-18.83v-27.93ZM60.79,142.91h-22.73v-18.83h22.73v18.83ZM117.29,142.91h-22.08v-18.83h22.08v18.83ZM117.29,90.3h-29.87v85.73h-18.83v-85.73h-30.52v-18.83h79.23v18.83ZM143.92,176.03h-18.83v-25.33h18.83v25.33ZM174.45,142.91h-49.36V35.75h18.83v88.33h30.52v18.83ZM174.45,90.3h-22.73v-18.83h22.73v18.83Z"/>
</svg>